<mxfile host="app.diagrams.net" modified="2022-06-08T13:35:06.494Z" agent="5.0 (Windows NT 10.0; Win64; x64) AppleWebKit/537.36 (KHTML, like Gecko) Chrome/92.0.4515.159 Safari/537.36" etag="TwbDyFh77wk3Cry-b9Im" version="18.2.0" type="github" pages="4">
  <diagram id="6Zdb3jxfQ8r9YnaqCA5s" name="Page-1">
    <mxGraphModel dx="1902" dy="997" grid="1" gridSize="10" guides="1" tooltips="1" connect="1" arrows="1" fold="1" page="1" pageScale="1" pageWidth="827" pageHeight="1169" math="0" shadow="0">
      <root>
        <mxCell id="0" />
        <mxCell id="1" parent="0" />
        <mxCell id="qajKW2mk3MIibNnwCbFj-1" value="子任务层" style="text;html=1;strokeColor=none;fillColor=none;align=center;verticalAlign=middle;whiteSpace=wrap;rounded=0;" parent="1" vertex="1">
          <mxGeometry x="156" y="243" width="60" height="30" as="geometry" />
        </mxCell>
        <mxCell id="qajKW2mk3MIibNnwCbFj-2" value="Transformer 层" style="text;html=1;strokeColor=none;fillColor=none;align=center;verticalAlign=middle;whiteSpace=wrap;rounded=0;" parent="1" vertex="1">
          <mxGeometry x="147" y="307" width="85" height="30" as="geometry" />
        </mxCell>
        <mxCell id="qajKW2mk3MIibNnwCbFj-3" value="Transformer 层" style="text;html=1;strokeColor=none;fillColor=none;align=center;verticalAlign=middle;whiteSpace=wrap;rounded=0;" parent="1" vertex="1">
          <mxGeometry x="147" y="376" width="85" height="30" as="geometry" />
        </mxCell>
        <mxCell id="qajKW2mk3MIibNnwCbFj-4" value="触发词编码层" style="text;html=1;strokeColor=none;fillColor=none;align=center;verticalAlign=middle;whiteSpace=wrap;rounded=0;" parent="1" vertex="1">
          <mxGeometry x="147" y="439" width="85" height="30" as="geometry" />
        </mxCell>
        <mxCell id="qajKW2mk3MIibNnwCbFj-5" value="输入" style="text;html=1;strokeColor=none;fillColor=none;align=center;verticalAlign=middle;whiteSpace=wrap;rounded=0;" parent="1" vertex="1">
          <mxGeometry x="143.5" y="576" width="85" height="30" as="geometry" />
        </mxCell>
        <mxCell id="qajKW2mk3MIibNnwCbFj-6" value="词嵌入层" style="text;html=1;strokeColor=none;fillColor=none;align=center;verticalAlign=middle;whiteSpace=wrap;rounded=0;" parent="1" vertex="1">
          <mxGeometry x="143.5" y="504" width="85" height="30" as="geometry" />
        </mxCell>
        <mxCell id="qajKW2mk3MIibNnwCbFj-7" value="输出" style="text;html=1;strokeColor=none;fillColor=none;align=center;verticalAlign=middle;whiteSpace=wrap;rounded=0;" parent="1" vertex="1">
          <mxGeometry x="141" y="180" width="85" height="30" as="geometry" />
        </mxCell>
        <mxCell id="qajKW2mk3MIibNnwCbFj-8" value="measure&amp;nbsp;" style="rounded=1;whiteSpace=wrap;html=1;" parent="1" vertex="1">
          <mxGeometry x="264" y="182" width="69" height="26" as="geometry" />
        </mxCell>
        <mxCell id="qajKW2mk3MIibNnwCbFj-9" value="O" style="rounded=1;whiteSpace=wrap;html=1;" parent="1" vertex="1">
          <mxGeometry x="367" y="182" width="27" height="26" as="geometry" />
        </mxCell>
        <mxCell id="qajKW2mk3MIibNnwCbFj-10" value="O" style="rounded=1;whiteSpace=wrap;html=1;" parent="1" vertex="1">
          <mxGeometry x="410" y="182" width="27" height="26" as="geometry" />
        </mxCell>
        <mxCell id="qajKW2mk3MIibNnwCbFj-11" value="O" style="rounded=1;whiteSpace=wrap;html=1;" parent="1" vertex="1">
          <mxGeometry x="453" y="182" width="27" height="26" as="geometry" />
        </mxCell>
        <mxCell id="qajKW2mk3MIibNnwCbFj-12" value="B-Unit" style="rounded=1;whiteSpace=wrap;html=1;" parent="1" vertex="1">
          <mxGeometry x="781.5" y="180" width="40" height="26" as="geometry" />
        </mxCell>
        <mxCell id="qajKW2mk3MIibNnwCbFj-13" value="" style="edgeStyle=orthogonalEdgeStyle;rounded=0;orthogonalLoop=1;jettySize=auto;html=1;" parent="1" source="qajKW2mk3MIibNnwCbFj-14" target="qajKW2mk3MIibNnwCbFj-8" edge="1">
          <mxGeometry relative="1" as="geometry" />
        </mxCell>
        <mxCell id="qajKW2mk3MIibNnwCbFj-14" value="MLP" style="rounded=1;whiteSpace=wrap;html=1;" parent="1" vertex="1">
          <mxGeometry x="285" y="251" width="27" height="26" as="geometry" />
        </mxCell>
        <mxCell id="qajKW2mk3MIibNnwCbFj-15" value="" style="edgeStyle=orthogonalEdgeStyle;rounded=0;orthogonalLoop=1;jettySize=auto;html=1;" parent="1" source="qajKW2mk3MIibNnwCbFj-16" target="qajKW2mk3MIibNnwCbFj-14" edge="1">
          <mxGeometry relative="1" as="geometry" />
        </mxCell>
        <mxCell id="qajKW2mk3MIibNnwCbFj-16" value="TRM" style="rounded=1;whiteSpace=wrap;html=1;" parent="1" vertex="1">
          <mxGeometry x="285" y="316" width="27" height="26" as="geometry" />
        </mxCell>
        <mxCell id="qajKW2mk3MIibNnwCbFj-17" value="" style="edgeStyle=orthogonalEdgeStyle;rounded=0;orthogonalLoop=1;jettySize=auto;html=1;" parent="1" source="qajKW2mk3MIibNnwCbFj-20" target="qajKW2mk3MIibNnwCbFj-16" edge="1">
          <mxGeometry relative="1" as="geometry" />
        </mxCell>
        <mxCell id="qajKW2mk3MIibNnwCbFj-18" style="rounded=0;orthogonalLoop=1;jettySize=auto;html=1;exitX=0.5;exitY=0;exitDx=0;exitDy=0;entryX=0.5;entryY=1;entryDx=0;entryDy=0;" parent="1" source="qajKW2mk3MIibNnwCbFj-20" target="qajKW2mk3MIibNnwCbFj-39" edge="1">
          <mxGeometry relative="1" as="geometry" />
        </mxCell>
        <mxCell id="qajKW2mk3MIibNnwCbFj-19" style="edgeStyle=none;rounded=0;orthogonalLoop=1;jettySize=auto;html=1;entryX=0.75;entryY=1;entryDx=0;entryDy=0;exitX=0.5;exitY=0;exitDx=0;exitDy=0;" parent="1" source="qajKW2mk3MIibNnwCbFj-20" target="qajKW2mk3MIibNnwCbFj-56" edge="1">
          <mxGeometry relative="1" as="geometry" />
        </mxCell>
        <mxCell id="qajKW2mk3MIibNnwCbFj-20" value="TRM" style="rounded=1;whiteSpace=wrap;html=1;" parent="1" vertex="1">
          <mxGeometry x="285" y="375" width="27" height="26" as="geometry" />
        </mxCell>
        <mxCell id="qajKW2mk3MIibNnwCbFj-21" value="" style="edgeStyle=orthogonalEdgeStyle;rounded=0;orthogonalLoop=1;jettySize=auto;html=1;" parent="1" source="qajKW2mk3MIibNnwCbFj-24" target="qajKW2mk3MIibNnwCbFj-20" edge="1">
          <mxGeometry relative="1" as="geometry" />
        </mxCell>
        <mxCell id="qajKW2mk3MIibNnwCbFj-22" style="edgeStyle=none;rounded=0;orthogonalLoop=1;jettySize=auto;html=1;exitX=0.5;exitY=0;exitDx=0;exitDy=0;" parent="1" source="qajKW2mk3MIibNnwCbFj-24" edge="1">
          <mxGeometry relative="1" as="geometry">
            <mxPoint x="616.6666870117188" y="406" as="targetPoint" />
          </mxGeometry>
        </mxCell>
        <mxCell id="qajKW2mk3MIibNnwCbFj-23" style="edgeStyle=none;rounded=0;orthogonalLoop=1;jettySize=auto;html=1;exitX=0.5;exitY=0;exitDx=0;exitDy=0;" parent="1" source="qajKW2mk3MIibNnwCbFj-24" edge="1">
          <mxGeometry relative="1" as="geometry">
            <mxPoint x="893.3333129882812" y="406" as="targetPoint" />
          </mxGeometry>
        </mxCell>
        <mxCell id="qajKW2mk3MIibNnwCbFj-24" value="PE" style="rounded=1;whiteSpace=wrap;html=1;" parent="1" vertex="1">
          <mxGeometry x="282.5" y="439" width="32" height="26" as="geometry" />
        </mxCell>
        <mxCell id="qajKW2mk3MIibNnwCbFj-25" value="" style="edgeStyle=orthogonalEdgeStyle;rounded=0;orthogonalLoop=1;jettySize=auto;html=1;" parent="1" source="qajKW2mk3MIibNnwCbFj-28" target="qajKW2mk3MIibNnwCbFj-24" edge="1">
          <mxGeometry relative="1" as="geometry" />
        </mxCell>
        <mxCell id="qajKW2mk3MIibNnwCbFj-26" style="edgeStyle=none;rounded=0;orthogonalLoop=1;jettySize=auto;html=1;entryX=0.5;entryY=1;entryDx=0;entryDy=0;exitX=0.5;exitY=0;exitDx=0;exitDy=0;" parent="1" source="qajKW2mk3MIibNnwCbFj-28" target="qajKW2mk3MIibNnwCbFj-47" edge="1">
          <mxGeometry relative="1" as="geometry">
            <mxPoint x="299" y="500" as="sourcePoint" />
          </mxGeometry>
        </mxCell>
        <mxCell id="qajKW2mk3MIibNnwCbFj-27" style="edgeStyle=none;rounded=0;orthogonalLoop=1;jettySize=auto;html=1;entryX=0.5;entryY=1;entryDx=0;entryDy=0;exitX=0.5;exitY=0;exitDx=0;exitDy=0;" parent="1" source="qajKW2mk3MIibNnwCbFj-28" target="qajKW2mk3MIibNnwCbFj-64" edge="1">
          <mxGeometry relative="1" as="geometry" />
        </mxCell>
        <mxCell id="qajKW2mk3MIibNnwCbFj-28" value="Eem" style="rounded=1;whiteSpace=wrap;html=1;" parent="1" vertex="1">
          <mxGeometry x="282.5" y="509" width="32" height="26" as="geometry" />
        </mxCell>
        <mxCell id="qajKW2mk3MIibNnwCbFj-29" value="" style="edgeStyle=orthogonalEdgeStyle;rounded=0;orthogonalLoop=1;jettySize=auto;html=1;" parent="1" source="qajKW2mk3MIibNnwCbFj-30" target="qajKW2mk3MIibNnwCbFj-28" edge="1">
          <mxGeometry relative="1" as="geometry" />
        </mxCell>
        <mxCell id="qajKW2mk3MIibNnwCbFj-30" value="[CLS]" style="rounded=1;whiteSpace=wrap;html=1;" parent="1" vertex="1">
          <mxGeometry x="279.5" y="576" width="38" height="26" as="geometry" />
        </mxCell>
        <mxCell id="qajKW2mk3MIibNnwCbFj-31" value="..." style="rounded=1;whiteSpace=wrap;html=1;" parent="1" vertex="1">
          <mxGeometry x="366.5" y="316" width="195" height="26" as="geometry" />
        </mxCell>
        <mxCell id="qajKW2mk3MIibNnwCbFj-32" value="..." style="rounded=1;whiteSpace=wrap;html=1;" parent="1" vertex="1">
          <mxGeometry x="366.5" y="377" width="195" height="26" as="geometry" />
        </mxCell>
        <mxCell id="qajKW2mk3MIibNnwCbFj-33" value="..." style="rounded=1;whiteSpace=wrap;html=1;" parent="1" vertex="1">
          <mxGeometry x="366" y="439" width="195" height="26" as="geometry" />
        </mxCell>
        <mxCell id="qajKW2mk3MIibNnwCbFj-34" value="..." style="rounded=1;whiteSpace=wrap;html=1;" parent="1" vertex="1">
          <mxGeometry x="366" y="506" width="195" height="26" as="geometry" />
        </mxCell>
        <mxCell id="qajKW2mk3MIibNnwCbFj-35" value="" style="edgeStyle=orthogonalEdgeStyle;rounded=0;orthogonalLoop=1;jettySize=auto;html=1;" parent="1" source="qajKW2mk3MIibNnwCbFj-37" edge="1">
          <mxGeometry relative="1" as="geometry">
            <mxPoint x="616" y="208" as="targetPoint" />
            <Array as="points">
              <mxPoint x="616" y="240" />
              <mxPoint x="616" y="240" />
            </Array>
          </mxGeometry>
        </mxCell>
        <mxCell id="qajKW2mk3MIibNnwCbFj-36" value="" style="edgeStyle=orthogonalEdgeStyle;rounded=0;orthogonalLoop=1;jettySize=auto;html=1;entryX=0.5;entryY=1;entryDx=0;entryDy=0;" parent="1" edge="1">
          <mxGeometry relative="1" as="geometry">
            <mxPoint x="668.9999999999998" y="250.9999999999999" as="sourcePoint" />
            <mxPoint x="668.9999999999998" y="208" as="targetPoint" />
            <Array as="points">
              <mxPoint x="669" y="239" />
              <mxPoint x="669" y="239" />
            </Array>
          </mxGeometry>
        </mxCell>
        <mxCell id="qajKW2mk3MIibNnwCbFj-37" value="CRF" style="rounded=1;whiteSpace=wrap;html=1;" parent="1" vertex="1">
          <mxGeometry x="366" y="251" width="542" height="26" as="geometry" />
        </mxCell>
        <mxCell id="qajKW2mk3MIibNnwCbFj-38" value="" style="edgeStyle=none;rounded=0;orthogonalLoop=1;jettySize=auto;html=1;" parent="1" source="qajKW2mk3MIibNnwCbFj-39" edge="1">
          <mxGeometry relative="1" as="geometry">
            <mxPoint x="613" y="271.9999999999999" as="targetPoint" />
          </mxGeometry>
        </mxCell>
        <mxCell id="qajKW2mk3MIibNnwCbFj-39" value="TRM" style="rounded=1;whiteSpace=wrap;html=1;" parent="1" vertex="1">
          <mxGeometry x="599" y="316" width="27" height="26" as="geometry" />
        </mxCell>
        <mxCell id="qajKW2mk3MIibNnwCbFj-40" value="" style="edgeStyle=orthogonalEdgeStyle;rounded=0;orthogonalLoop=1;jettySize=auto;html=1;" parent="1" source="qajKW2mk3MIibNnwCbFj-43" target="qajKW2mk3MIibNnwCbFj-39" edge="1">
          <mxGeometry relative="1" as="geometry" />
        </mxCell>
        <mxCell id="qajKW2mk3MIibNnwCbFj-41" style="edgeStyle=none;rounded=0;orthogonalLoop=1;jettySize=auto;html=1;entryX=0.5;entryY=1;entryDx=0;entryDy=0;exitX=0.5;exitY=0;exitDx=0;exitDy=0;" parent="1" source="qajKW2mk3MIibNnwCbFj-43" target="qajKW2mk3MIibNnwCbFj-16" edge="1">
          <mxGeometry relative="1" as="geometry" />
        </mxCell>
        <mxCell id="qajKW2mk3MIibNnwCbFj-42" style="edgeStyle=none;rounded=0;orthogonalLoop=1;jettySize=auto;html=1;exitX=0.5;exitY=0;exitDx=0;exitDy=0;" parent="1" source="qajKW2mk3MIibNnwCbFj-43" edge="1">
          <mxGeometry relative="1" as="geometry">
            <mxPoint x="898.5555216471355" y="347.2222137451172" as="targetPoint" />
          </mxGeometry>
        </mxCell>
        <mxCell id="qajKW2mk3MIibNnwCbFj-43" value="TRM" style="rounded=1;whiteSpace=wrap;html=1;" parent="1" vertex="1">
          <mxGeometry x="599" y="377" width="27" height="26" as="geometry" />
        </mxCell>
        <mxCell id="qajKW2mk3MIibNnwCbFj-44" value="" style="edgeStyle=orthogonalEdgeStyle;rounded=0;orthogonalLoop=1;jettySize=auto;html=1;" parent="1" source="qajKW2mk3MIibNnwCbFj-47" target="qajKW2mk3MIibNnwCbFj-43" edge="1">
          <mxGeometry relative="1" as="geometry" />
        </mxCell>
        <mxCell id="qajKW2mk3MIibNnwCbFj-45" style="edgeStyle=none;rounded=0;orthogonalLoop=1;jettySize=auto;html=1;entryX=0.5;entryY=1;entryDx=0;entryDy=0;exitX=0.5;exitY=0;exitDx=0;exitDy=0;" parent="1" source="qajKW2mk3MIibNnwCbFj-47" target="qajKW2mk3MIibNnwCbFj-20" edge="1">
          <mxGeometry relative="1" as="geometry" />
        </mxCell>
        <mxCell id="qajKW2mk3MIibNnwCbFj-46" style="edgeStyle=none;rounded=0;orthogonalLoop=1;jettySize=auto;html=1;exitX=0.5;exitY=0;exitDx=0;exitDy=0;" parent="1" source="qajKW2mk3MIibNnwCbFj-47" edge="1">
          <mxGeometry relative="1" as="geometry">
            <mxPoint x="892.6666870117188" y="405.33331298828125" as="targetPoint" />
          </mxGeometry>
        </mxCell>
        <mxCell id="qajKW2mk3MIibNnwCbFj-47" value="PE" style="rounded=1;whiteSpace=wrap;html=1;" parent="1" vertex="1">
          <mxGeometry x="596.5" y="439" width="32" height="26" as="geometry" />
        </mxCell>
        <mxCell id="qajKW2mk3MIibNnwCbFj-48" value="" style="edgeStyle=orthogonalEdgeStyle;rounded=0;orthogonalLoop=1;jettySize=auto;html=1;" parent="1" source="qajKW2mk3MIibNnwCbFj-51" target="qajKW2mk3MIibNnwCbFj-47" edge="1">
          <mxGeometry relative="1" as="geometry" />
        </mxCell>
        <mxCell id="qajKW2mk3MIibNnwCbFj-49" style="edgeStyle=none;rounded=0;orthogonalLoop=1;jettySize=auto;html=1;entryX=0.5;entryY=1;entryDx=0;entryDy=0;exitX=0.25;exitY=0;exitDx=0;exitDy=0;" parent="1" source="qajKW2mk3MIibNnwCbFj-51" target="qajKW2mk3MIibNnwCbFj-64" edge="1">
          <mxGeometry relative="1" as="geometry" />
        </mxCell>
        <mxCell id="qajKW2mk3MIibNnwCbFj-50" style="edgeStyle=none;rounded=0;orthogonalLoop=1;jettySize=auto;html=1;entryX=0.5;entryY=1;entryDx=0;entryDy=0;" parent="1" target="qajKW2mk3MIibNnwCbFj-24" edge="1">
          <mxGeometry relative="1" as="geometry">
            <mxPoint x="320.6666564941406" y="471.33331298828125" as="targetPoint" />
            <mxPoint x="613" y="503" as="sourcePoint" />
          </mxGeometry>
        </mxCell>
        <mxCell id="qajKW2mk3MIibNnwCbFj-51" value="Eem" style="rounded=1;whiteSpace=wrap;html=1;" parent="1" vertex="1">
          <mxGeometry x="596.5" y="506" width="32" height="26" as="geometry" />
        </mxCell>
        <mxCell id="qajKW2mk3MIibNnwCbFj-52" value="..." style="rounded=1;whiteSpace=wrap;html=1;" parent="1" vertex="1">
          <mxGeometry x="664" y="320" width="195" height="26" as="geometry" />
        </mxCell>
        <mxCell id="qajKW2mk3MIibNnwCbFj-53" value="..." style="rounded=1;whiteSpace=wrap;html=1;" parent="1" vertex="1">
          <mxGeometry x="663" y="375" width="195" height="26" as="geometry" />
        </mxCell>
        <mxCell id="qajKW2mk3MIibNnwCbFj-54" value="..." style="rounded=1;whiteSpace=wrap;html=1;" parent="1" vertex="1">
          <mxGeometry x="663.5" y="443" width="195" height="26" as="geometry" />
        </mxCell>
        <mxCell id="qajKW2mk3MIibNnwCbFj-55" value="..." style="rounded=1;whiteSpace=wrap;html=1;" parent="1" vertex="1">
          <mxGeometry x="663.5" y="510" width="195" height="26" as="geometry" />
        </mxCell>
        <mxCell id="qajKW2mk3MIibNnwCbFj-56" value="TRM" style="rounded=1;whiteSpace=wrap;html=1;" parent="1" vertex="1">
          <mxGeometry x="880" y="320" width="27" height="26" as="geometry" />
        </mxCell>
        <mxCell id="qajKW2mk3MIibNnwCbFj-57" value="" style="edgeStyle=orthogonalEdgeStyle;rounded=0;orthogonalLoop=1;jettySize=auto;html=1;" parent="1" source="qajKW2mk3MIibNnwCbFj-60" target="qajKW2mk3MIibNnwCbFj-56" edge="1">
          <mxGeometry relative="1" as="geometry" />
        </mxCell>
        <mxCell id="qajKW2mk3MIibNnwCbFj-58" style="edgeStyle=none;rounded=0;orthogonalLoop=1;jettySize=auto;html=1;exitX=0.5;exitY=0;exitDx=0;exitDy=0;" parent="1" source="qajKW2mk3MIibNnwCbFj-60" edge="1">
          <mxGeometry relative="1" as="geometry">
            <mxPoint x="613.5555216471355" y="343.33333333333337" as="targetPoint" />
          </mxGeometry>
        </mxCell>
        <mxCell id="qajKW2mk3MIibNnwCbFj-59" style="edgeStyle=none;rounded=0;orthogonalLoop=1;jettySize=auto;html=1;exitX=0.5;exitY=0;exitDx=0;exitDy=0;" parent="1" source="qajKW2mk3MIibNnwCbFj-60" edge="1">
          <mxGeometry relative="1" as="geometry">
            <mxPoint x="286.3333333333335" y="341.66666666666674" as="targetPoint" />
          </mxGeometry>
        </mxCell>
        <mxCell id="qajKW2mk3MIibNnwCbFj-60" value="TRM" style="rounded=1;whiteSpace=wrap;html=1;" parent="1" vertex="1">
          <mxGeometry x="880" y="377" width="27" height="26" as="geometry" />
        </mxCell>
        <mxCell id="qajKW2mk3MIibNnwCbFj-61" value="" style="edgeStyle=orthogonalEdgeStyle;rounded=0;orthogonalLoop=1;jettySize=auto;html=1;" parent="1" source="qajKW2mk3MIibNnwCbFj-64" target="qajKW2mk3MIibNnwCbFj-60" edge="1">
          <mxGeometry relative="1" as="geometry" />
        </mxCell>
        <mxCell id="qajKW2mk3MIibNnwCbFj-62" style="edgeStyle=none;rounded=0;orthogonalLoop=1;jettySize=auto;html=1;exitX=0.5;exitY=0;exitDx=0;exitDy=0;" parent="1" source="qajKW2mk3MIibNnwCbFj-64" edge="1">
          <mxGeometry relative="1" as="geometry">
            <mxPoint x="610" y="405.33331298828125" as="targetPoint" />
          </mxGeometry>
        </mxCell>
        <mxCell id="qajKW2mk3MIibNnwCbFj-63" style="edgeStyle=none;rounded=0;orthogonalLoop=1;jettySize=auto;html=1;entryX=0.5;entryY=1;entryDx=0;entryDy=0;exitX=0.5;exitY=0;exitDx=0;exitDy=0;" parent="1" source="qajKW2mk3MIibNnwCbFj-64" target="qajKW2mk3MIibNnwCbFj-20" edge="1">
          <mxGeometry relative="1" as="geometry" />
        </mxCell>
        <mxCell id="qajKW2mk3MIibNnwCbFj-64" value="PE" style="rounded=1;whiteSpace=wrap;html=1;" parent="1" vertex="1">
          <mxGeometry x="877.5" y="443" width="32" height="26" as="geometry" />
        </mxCell>
        <mxCell id="qajKW2mk3MIibNnwCbFj-65" value="" style="edgeStyle=orthogonalEdgeStyle;rounded=0;orthogonalLoop=1;jettySize=auto;html=1;" parent="1" source="qajKW2mk3MIibNnwCbFj-68" target="qajKW2mk3MIibNnwCbFj-64" edge="1">
          <mxGeometry relative="1" as="geometry" />
        </mxCell>
        <mxCell id="qajKW2mk3MIibNnwCbFj-66" style="edgeStyle=none;rounded=0;orthogonalLoop=1;jettySize=auto;html=1;exitX=0.5;exitY=0;exitDx=0;exitDy=0;" parent="1" source="qajKW2mk3MIibNnwCbFj-68" edge="1">
          <mxGeometry relative="1" as="geometry">
            <mxPoint x="613" y="465" as="targetPoint" />
          </mxGeometry>
        </mxCell>
        <mxCell id="qajKW2mk3MIibNnwCbFj-67" style="edgeStyle=none;rounded=0;orthogonalLoop=1;jettySize=auto;html=1;entryX=0.5;entryY=1;entryDx=0;entryDy=0;exitX=0.5;exitY=0;exitDx=0;exitDy=0;" parent="1" source="qajKW2mk3MIibNnwCbFj-68" target="qajKW2mk3MIibNnwCbFj-24" edge="1">
          <mxGeometry relative="1" as="geometry" />
        </mxCell>
        <mxCell id="qajKW2mk3MIibNnwCbFj-68" value="Eem" style="rounded=1;whiteSpace=wrap;html=1;" parent="1" vertex="1">
          <mxGeometry x="877.5" y="510" width="32" height="26" as="geometry" />
        </mxCell>
        <mxCell id="qajKW2mk3MIibNnwCbFj-69" style="edgeStyle=orthogonalEdgeStyle;rounded=0;orthogonalLoop=1;jettySize=auto;html=1;" parent="1" source="qajKW2mk3MIibNnwCbFj-70" edge="1">
          <mxGeometry relative="1" as="geometry">
            <mxPoint x="379.5" y="534.1428920200892" as="targetPoint" />
          </mxGeometry>
        </mxCell>
        <mxCell id="qajKW2mk3MIibNnwCbFj-70" value="里" style="rounded=1;whiteSpace=wrap;html=1;" parent="1" vertex="1">
          <mxGeometry x="366" y="576" width="27" height="26" as="geometry" />
        </mxCell>
        <mxCell id="qajKW2mk3MIibNnwCbFj-71" value="根" style="rounded=1;whiteSpace=wrap;html=1;" parent="1" vertex="1">
          <mxGeometry x="409" y="576" width="27" height="26" as="geometry" />
        </mxCell>
        <mxCell id="qajKW2mk3MIibNnwCbFj-72" value="号" style="rounded=1;whiteSpace=wrap;html=1;" parent="1" vertex="1">
          <mxGeometry x="452" y="576" width="27" height="26" as="geometry" />
        </mxCell>
        <mxCell id="qajKW2mk3MIibNnwCbFj-73" value="造" style="rounded=1;whiteSpace=wrap;html=1;" parent="1" vertex="1">
          <mxGeometry x="496" y="577" width="27" height="26" as="geometry" />
        </mxCell>
        <mxCell id="qajKW2mk3MIibNnwCbFj-74" value="价" style="rounded=1;whiteSpace=wrap;html=1;" parent="1" vertex="1">
          <mxGeometry x="539" y="577" width="27" height="26" as="geometry" />
        </mxCell>
        <mxCell id="qajKW2mk3MIibNnwCbFj-75" value="高" style="rounded=1;whiteSpace=wrap;html=1;" parent="1" vertex="1">
          <mxGeometry x="599" y="578" width="27" height="26" as="geometry" />
        </mxCell>
        <mxCell id="qajKW2mk3MIibNnwCbFj-76" value="达" style="rounded=1;whiteSpace=wrap;html=1;" parent="1" vertex="1">
          <mxGeometry x="658" y="576" width="27" height="26" as="geometry" />
        </mxCell>
        <mxCell id="qajKW2mk3MIibNnwCbFj-77" value="" style="edgeStyle=orthogonalEdgeStyle;rounded=0;orthogonalLoop=1;jettySize=auto;html=1;endArrow=classic;endFill=1;entryX=0.377;entryY=0.958;entryDx=0;entryDy=0;entryPerimeter=0;" parent="1" source="qajKW2mk3MIibNnwCbFj-78" target="qajKW2mk3MIibNnwCbFj-55" edge="1">
          <mxGeometry relative="1" as="geometry">
            <mxPoint x="738" y="546" as="targetPoint" />
            <Array as="points">
              <mxPoint x="737" y="568" />
              <mxPoint x="737" y="568" />
            </Array>
          </mxGeometry>
        </mxCell>
        <mxCell id="qajKW2mk3MIibNnwCbFj-78" value="45" style="rounded=1;whiteSpace=wrap;html=1;" parent="1" vertex="1">
          <mxGeometry x="704" y="576" width="68" height="26" as="geometry" />
        </mxCell>
        <mxCell id="qajKW2mk3MIibNnwCbFj-79" value="亿" style="rounded=1;whiteSpace=wrap;html=1;" parent="1" vertex="1">
          <mxGeometry x="788" y="576" width="27" height="26" as="geometry" />
        </mxCell>
        <mxCell id="qajKW2mk3MIibNnwCbFj-80" value="美" style="rounded=1;whiteSpace=wrap;html=1;" parent="1" vertex="1">
          <mxGeometry x="832" y="576" width="27" height="26" as="geometry" />
        </mxCell>
        <mxCell id="qajKW2mk3MIibNnwCbFj-81" value="元" style="rounded=1;whiteSpace=wrap;html=1;" parent="1" vertex="1">
          <mxGeometry x="881" y="576" width="27" height="26" as="geometry" />
        </mxCell>
        <mxCell id="qajKW2mk3MIibNnwCbFj-82" value="" style="edgeStyle=orthogonalEdgeStyle;rounded=0;orthogonalLoop=1;jettySize=auto;html=1;entryX=0.5;entryY=1;entryDx=0;entryDy=0;" parent="1" edge="1">
          <mxGeometry relative="1" as="geometry">
            <mxPoint x="510.90999999999985" y="251" as="sourcePoint" />
            <mxPoint x="510.90999999999985" y="208" as="targetPoint" />
            <Array as="points">
              <mxPoint x="510.90999999999997" y="239" />
              <mxPoint x="510.90999999999997" y="239" />
            </Array>
          </mxGeometry>
        </mxCell>
        <mxCell id="qajKW2mk3MIibNnwCbFj-83" value="" style="edgeStyle=orthogonalEdgeStyle;rounded=0;orthogonalLoop=1;jettySize=auto;html=1;entryX=0.5;entryY=1;entryDx=0;entryDy=0;" parent="1" edge="1">
          <mxGeometry relative="1" as="geometry">
            <mxPoint x="465.29999999999995" y="251" as="sourcePoint" />
            <mxPoint x="465.29999999999995" y="208" as="targetPoint" />
            <Array as="points">
              <mxPoint x="465.3" y="239" />
              <mxPoint x="465.3" y="239" />
            </Array>
          </mxGeometry>
        </mxCell>
        <mxCell id="qajKW2mk3MIibNnwCbFj-84" value="" style="edgeStyle=orthogonalEdgeStyle;rounded=0;orthogonalLoop=1;jettySize=auto;html=1;entryX=0.5;entryY=1;entryDx=0;entryDy=0;" parent="1" edge="1">
          <mxGeometry relative="1" as="geometry">
            <mxPoint x="423.29999999999995" y="251" as="sourcePoint" />
            <mxPoint x="423.29999999999995" y="208" as="targetPoint" />
            <Array as="points">
              <mxPoint x="423.3" y="239" />
              <mxPoint x="423.3" y="239" />
            </Array>
          </mxGeometry>
        </mxCell>
        <mxCell id="qajKW2mk3MIibNnwCbFj-85" value="" style="edgeStyle=orthogonalEdgeStyle;rounded=0;orthogonalLoop=1;jettySize=auto;html=1;entryX=0.5;entryY=1;entryDx=0;entryDy=0;" parent="1" edge="1">
          <mxGeometry relative="1" as="geometry">
            <mxPoint x="797.3" y="251" as="sourcePoint" />
            <mxPoint x="797.3" y="208" as="targetPoint" />
            <Array as="points">
              <mxPoint x="797.3" y="239" />
              <mxPoint x="797.3" y="239" />
            </Array>
          </mxGeometry>
        </mxCell>
        <mxCell id="qajKW2mk3MIibNnwCbFj-86" value="" style="edgeStyle=orthogonalEdgeStyle;rounded=0;orthogonalLoop=1;jettySize=auto;html=1;entryX=0.5;entryY=1;entryDx=0;entryDy=0;" parent="1" edge="1">
          <mxGeometry relative="1" as="geometry">
            <mxPoint x="891" y="320" as="sourcePoint" />
            <mxPoint x="891" y="276.9999999999999" as="targetPoint" />
            <Array as="points">
              <mxPoint x="891" y="308" />
              <mxPoint x="891" y="308" />
            </Array>
          </mxGeometry>
        </mxCell>
        <mxCell id="qajKW2mk3MIibNnwCbFj-87" value="" style="edgeStyle=orthogonalEdgeStyle;rounded=0;orthogonalLoop=1;jettySize=auto;html=1;entryX=0.5;entryY=1;entryDx=0;entryDy=0;" parent="1" edge="1">
          <mxGeometry relative="1" as="geometry">
            <mxPoint x="894" y="251" as="sourcePoint" />
            <mxPoint x="894" y="208" as="targetPoint" />
            <Array as="points">
              <mxPoint x="894" y="239" />
              <mxPoint x="894" y="239" />
            </Array>
          </mxGeometry>
        </mxCell>
        <mxCell id="qajKW2mk3MIibNnwCbFj-88" style="edgeStyle=orthogonalEdgeStyle;rounded=0;orthogonalLoop=1;jettySize=auto;html=1;" parent="1" edge="1">
          <mxGeometry relative="1" as="geometry">
            <mxPoint x="422.21000000000004" y="534.1428920200892" as="targetPoint" />
            <mxPoint x="422.21000000000004" y="576" as="sourcePoint" />
            <Array as="points">
              <mxPoint x="422.71" y="534" />
            </Array>
          </mxGeometry>
        </mxCell>
        <mxCell id="qajKW2mk3MIibNnwCbFj-89" style="edgeStyle=orthogonalEdgeStyle;rounded=0;orthogonalLoop=1;jettySize=auto;html=1;" parent="1" edge="1">
          <mxGeometry relative="1" as="geometry">
            <mxPoint x="463.86000000000035" y="534.0028920200893" as="targetPoint" />
            <mxPoint x="463.86000000000035" y="575.8600000000001" as="sourcePoint" />
          </mxGeometry>
        </mxCell>
        <mxCell id="qajKW2mk3MIibNnwCbFj-90" style="edgeStyle=orthogonalEdgeStyle;rounded=0;orthogonalLoop=1;jettySize=auto;html=1;" parent="1" edge="1">
          <mxGeometry relative="1" as="geometry">
            <mxPoint x="509.3600000000001" y="536.0028920200893" as="targetPoint" />
            <mxPoint x="509.3600000000001" y="577.8600000000001" as="sourcePoint" />
          </mxGeometry>
        </mxCell>
        <mxCell id="qajKW2mk3MIibNnwCbFj-91" style="edgeStyle=orthogonalEdgeStyle;rounded=0;orthogonalLoop=1;jettySize=auto;html=1;" parent="1" edge="1">
          <mxGeometry relative="1" as="geometry">
            <mxPoint x="552.3600000000001" y="536.0028920200893" as="targetPoint" />
            <mxPoint x="552.3600000000001" y="577.8600000000001" as="sourcePoint" />
          </mxGeometry>
        </mxCell>
        <mxCell id="qajKW2mk3MIibNnwCbFj-92" style="edgeStyle=orthogonalEdgeStyle;rounded=0;orthogonalLoop=1;jettySize=auto;html=1;" parent="1" edge="1">
          <mxGeometry relative="1" as="geometry">
            <mxPoint x="801.3" y="535.1428920200893" as="targetPoint" />
            <mxPoint x="801.3" y="577" as="sourcePoint" />
          </mxGeometry>
        </mxCell>
        <mxCell id="qajKW2mk3MIibNnwCbFj-93" style="edgeStyle=orthogonalEdgeStyle;rounded=0;orthogonalLoop=1;jettySize=auto;html=1;" parent="1" edge="1">
          <mxGeometry relative="1" as="geometry">
            <mxPoint x="845.3000000000002" y="535.1428920200893" as="targetPoint" />
            <mxPoint x="845.3000000000002" y="577" as="sourcePoint" />
          </mxGeometry>
        </mxCell>
        <mxCell id="qajKW2mk3MIibNnwCbFj-94" style="edgeStyle=orthogonalEdgeStyle;rounded=0;orthogonalLoop=1;jettySize=auto;html=1;" parent="1" edge="1">
          <mxGeometry relative="1" as="geometry">
            <mxPoint x="894.3000000000002" y="536.0028920200893" as="targetPoint" />
            <mxPoint x="894.3000000000002" y="577.8600000000001" as="sourcePoint" />
          </mxGeometry>
        </mxCell>
        <mxCell id="qajKW2mk3MIibNnwCbFj-95" style="edgeStyle=orthogonalEdgeStyle;rounded=0;orthogonalLoop=1;jettySize=auto;html=1;" parent="1" edge="1">
          <mxGeometry relative="1" as="geometry">
            <mxPoint x="612" y="534.1428920200892" as="targetPoint" />
            <mxPoint x="612" y="576" as="sourcePoint" />
          </mxGeometry>
        </mxCell>
        <mxCell id="qajKW2mk3MIibNnwCbFj-96" style="edgeStyle=orthogonalEdgeStyle;rounded=0;orthogonalLoop=1;jettySize=auto;html=1;" parent="1" edge="1">
          <mxGeometry relative="1" as="geometry">
            <mxPoint x="671.3" y="536.0028920200893" as="targetPoint" />
            <mxPoint x="671.3" y="577.8600000000001" as="sourcePoint" />
          </mxGeometry>
        </mxCell>
        <mxCell id="qajKW2mk3MIibNnwCbFj-97" value="" style="edgeStyle=orthogonalEdgeStyle;rounded=0;orthogonalLoop=1;jettySize=auto;html=1;entryX=0.5;entryY=1;entryDx=0;entryDy=0;" parent="1" edge="1">
          <mxGeometry relative="1" as="geometry">
            <mxPoint x="379.3299999999999" y="250.9999999999999" as="sourcePoint" />
            <mxPoint x="379.3299999999999" y="208" as="targetPoint" />
            <Array as="points">
              <mxPoint x="379.33000000000004" y="239" />
              <mxPoint x="379.33000000000004" y="239" />
            </Array>
          </mxGeometry>
        </mxCell>
        <mxCell id="qajKW2mk3MIibNnwCbFj-98" value="O" style="rounded=1;whiteSpace=wrap;html=1;" parent="1" vertex="1">
          <mxGeometry x="498" y="181" width="27" height="26" as="geometry" />
        </mxCell>
        <mxCell id="qajKW2mk3MIibNnwCbFj-99" value="O" style="rounded=1;whiteSpace=wrap;html=1;" parent="1" vertex="1">
          <mxGeometry x="545" y="180" width="27" height="26" as="geometry" />
        </mxCell>
        <mxCell id="qajKW2mk3MIibNnwCbFj-100" value="" style="edgeStyle=orthogonalEdgeStyle;rounded=0;orthogonalLoop=1;jettySize=auto;html=1;entryX=0.5;entryY=1;entryDx=0;entryDy=0;" parent="1" edge="1">
          <mxGeometry relative="1" as="geometry">
            <mxPoint x="559.4299999999998" y="251.9999999999999" as="sourcePoint" />
            <mxPoint x="559.4299999999998" y="209" as="targetPoint" />
            <Array as="points">
              <mxPoint x="559.52" y="218" />
              <mxPoint x="559.52" y="218" />
            </Array>
          </mxGeometry>
        </mxCell>
        <mxCell id="qajKW2mk3MIibNnwCbFj-101" value="O" style="rounded=1;whiteSpace=wrap;html=1;" parent="1" vertex="1">
          <mxGeometry x="601.5" y="180" width="27" height="26" as="geometry" />
        </mxCell>
        <mxCell id="qajKW2mk3MIibNnwCbFj-102" value="O" style="rounded=1;whiteSpace=wrap;html=1;" parent="1" vertex="1">
          <mxGeometry x="656" y="180" width="27" height="26" as="geometry" />
        </mxCell>
        <mxCell id="qajKW2mk3MIibNnwCbFj-103" value="" style="edgeStyle=orthogonalEdgeStyle;rounded=0;orthogonalLoop=1;jettySize=auto;html=1;entryX=0.5;entryY=1;entryDx=0;entryDy=0;" parent="1" edge="1">
          <mxGeometry relative="1" as="geometry">
            <mxPoint x="734.6599999999999" y="250.9999999999999" as="sourcePoint" />
            <mxPoint x="734.6599999999999" y="208" as="targetPoint" />
            <Array as="points">
              <mxPoint x="734.66" y="239" />
              <mxPoint x="734.66" y="239" />
            </Array>
          </mxGeometry>
        </mxCell>
        <mxCell id="qajKW2mk3MIibNnwCbFj-104" value="B-Value" style="rounded=1;whiteSpace=wrap;html=1;" parent="1" vertex="1">
          <mxGeometry x="698" y="180" width="74" height="26" as="geometry" />
        </mxCell>
        <mxCell id="qajKW2mk3MIibNnwCbFj-105" value="B-Unit" style="rounded=1;whiteSpace=wrap;html=1;" parent="1" vertex="1">
          <mxGeometry x="827" y="180" width="40" height="26" as="geometry" />
        </mxCell>
        <mxCell id="qajKW2mk3MIibNnwCbFj-106" value="B-Unit" style="rounded=1;whiteSpace=wrap;html=1;" parent="1" vertex="1">
          <mxGeometry x="874.5" y="180" width="40" height="26" as="geometry" />
        </mxCell>
        <mxCell id="qajKW2mk3MIibNnwCbFj-107" value="" style="edgeStyle=orthogonalEdgeStyle;rounded=0;orthogonalLoop=1;jettySize=auto;html=1;entryX=0.5;entryY=1;entryDx=0;entryDy=0;" parent="1" edge="1">
          <mxGeometry relative="1" as="geometry">
            <mxPoint x="845" y="251" as="sourcePoint" />
            <mxPoint x="845" y="208" as="targetPoint" />
            <Array as="points">
              <mxPoint x="845" y="239" />
              <mxPoint x="845" y="239" />
            </Array>
          </mxGeometry>
        </mxCell>
      </root>
    </mxGraphModel>
  </diagram>
  <diagram id="j1lgtEe2ggzhDN4-RpHA" name="Page-2">
    <mxGraphModel dx="782" dy="468" grid="1" gridSize="10" guides="1" tooltips="1" connect="1" arrows="1" fold="1" page="1" pageScale="1" pageWidth="827" pageHeight="1169" math="0" shadow="0">
      <root>
        <mxCell id="qd15tuj_ind1l0wB-trp-0" />
        <mxCell id="qd15tuj_ind1l0wB-trp-1" parent="qd15tuj_ind1l0wB-trp-0" />
        <mxCell id="qd15tuj_ind1l0wB-trp-2" style="edgeStyle=none;rounded=0;orthogonalLoop=1;jettySize=auto;html=1;" parent="qd15tuj_ind1l0wB-trp-1" source="qd15tuj_ind1l0wB-trp-3" target="qd15tuj_ind1l0wB-trp-11" edge="1">
          <mxGeometry relative="1" as="geometry" />
        </mxCell>
        <mxCell id="qd15tuj_ind1l0wB-trp-3" value="输入文本" style="swimlane;" parent="qd15tuj_ind1l0wB-trp-1" vertex="1">
          <mxGeometry x="117" y="172" width="150" height="70" as="geometry" />
        </mxCell>
        <mxCell id="qd15tuj_ind1l0wB-trp-4" value="里根号造价高达45亿美元" style="text;html=1;align=center;verticalAlign=middle;resizable=0;points=[];autosize=1;strokeColor=none;fillColor=none;" parent="qd15tuj_ind1l0wB-trp-3" vertex="1">
          <mxGeometry x="3.5" y="36" width="143" height="18" as="geometry" />
        </mxCell>
        <mxCell id="qd15tuj_ind1l0wB-trp-5" value="形成多条记录&#xa;（win_size=4）" style="swimlane;startSize=34;" parent="qd15tuj_ind1l0wB-trp-1" vertex="1">
          <mxGeometry x="108.5" y="301" width="169" height="139" as="geometry" />
        </mxCell>
        <mxCell id="qd15tuj_ind1l0wB-trp-6" value="[CLS][PAD][PAD][PAD]里根号&lt;br&gt;造价高达[45亿美元][SEP]" style="text;html=1;align=center;verticalAlign=middle;resizable=0;points=[];autosize=1;strokeColor=none;fillColor=none;" parent="qd15tuj_ind1l0wB-trp-5" vertex="1">
          <mxGeometry x="2" y="69" width="167" height="32" as="geometry" />
        </mxCell>
        <mxCell id="qd15tuj_ind1l0wB-trp-7" style="edgeStyle=none;rounded=0;orthogonalLoop=1;jettySize=auto;html=1;exitX=1;exitY=0.75;exitDx=0;exitDy=0;entryX=-0.006;entryY=0.641;entryDx=0;entryDy=0;entryPerimeter=0;" parent="qd15tuj_ind1l0wB-trp-1" source="qd15tuj_ind1l0wB-trp-8" target="qd15tuj_ind1l0wB-trp-25" edge="1">
          <mxGeometry relative="1" as="geometry">
            <mxPoint x="667" y="542" as="targetPoint" />
          </mxGeometry>
        </mxCell>
        <mxCell id="qd15tuj_ind1l0wB-trp-8" value="数值结构关系&#xa;NSR" style="swimlane;startSize=35;" parent="qd15tuj_ind1l0wB-trp-1" vertex="1">
          <mxGeometry x="136" y="481" width="122" height="88" as="geometry" />
        </mxCell>
        <mxCell id="qd15tuj_ind1l0wB-trp-9" value="(1)：无关" style="text;html=1;align=center;verticalAlign=middle;resizable=0;points=[];autosize=1;strokeColor=none;fillColor=none;" parent="qd15tuj_ind1l0wB-trp-8" vertex="1">
          <mxGeometry x="32.5" y="39" width="61" height="18" as="geometry" />
        </mxCell>
        <mxCell id="qd15tuj_ind1l0wB-trp-10" style="edgeStyle=orthogonalEdgeStyle;rounded=0;orthogonalLoop=1;jettySize=auto;html=1;endArrow=classic;endFill=1;entryX=0;entryY=0.5;entryDx=0;entryDy=0;" parent="qd15tuj_ind1l0wB-trp-1" source="qd15tuj_ind1l0wB-trp-11" target="qd15tuj_ind1l0wB-trp-20" edge="1">
          <mxGeometry relative="1" as="geometry">
            <mxPoint x="557" y="207" as="targetPoint" />
          </mxGeometry>
        </mxCell>
        <mxCell id="qd15tuj_ind1l0wB-trp-11" value="文本预处理" style="rounded=1;whiteSpace=wrap;html=1;" parent="qd15tuj_ind1l0wB-trp-1" vertex="1">
          <mxGeometry x="348" y="177" width="120" height="60" as="geometry" />
        </mxCell>
        <mxCell id="qd15tuj_ind1l0wB-trp-12" style="edgeStyle=none;rounded=0;orthogonalLoop=1;jettySize=auto;html=1;entryX=1;entryY=0.25;entryDx=0;entryDy=0;" parent="qd15tuj_ind1l0wB-trp-1" source="qd15tuj_ind1l0wB-trp-13" target="qd15tuj_ind1l0wB-trp-5" edge="1">
          <mxGeometry relative="1" as="geometry" />
        </mxCell>
        <mxCell id="qd15tuj_ind1l0wB-trp-13" value="识别所有触发词，并选取其前后一定窗口内的词，形成多条记录" style="rounded=1;whiteSpace=wrap;html=1;" parent="qd15tuj_ind1l0wB-trp-1" vertex="1">
          <mxGeometry x="336" y="305" width="120" height="60" as="geometry" />
        </mxCell>
        <mxCell id="qd15tuj_ind1l0wB-trp-14" style="edgeStyle=none;rounded=0;orthogonalLoop=1;jettySize=auto;html=1;" parent="qd15tuj_ind1l0wB-trp-1" source="qd15tuj_ind1l0wB-trp-16" edge="1">
          <mxGeometry relative="1" as="geometry">
            <mxPoint x="278" y="421" as="targetPoint" />
          </mxGeometry>
        </mxCell>
        <mxCell id="qd15tuj_ind1l0wB-trp-15" style="edgeStyle=orthogonalEdgeStyle;rounded=0;orthogonalLoop=1;jettySize=auto;html=1;entryX=0.025;entryY=0.422;entryDx=0;entryDy=0;entryPerimeter=0;endArrow=none;endFill=0;" parent="qd15tuj_ind1l0wB-trp-1" source="qd15tuj_ind1l0wB-trp-16" target="qd15tuj_ind1l0wB-trp-24" edge="1">
          <mxGeometry relative="1" as="geometry" />
        </mxCell>
        <mxCell id="qd15tuj_ind1l0wB-trp-16" value="将各记录分别输入联合学习模型，抽取数值信息单元" style="rounded=1;whiteSpace=wrap;html=1;" parent="qd15tuj_ind1l0wB-trp-1" vertex="1">
          <mxGeometry x="334" y="391" width="120" height="60" as="geometry" />
        </mxCell>
        <mxCell id="qd15tuj_ind1l0wB-trp-17" style="edgeStyle=none;rounded=0;orthogonalLoop=1;jettySize=auto;html=1;" parent="qd15tuj_ind1l0wB-trp-1" source="qd15tuj_ind1l0wB-trp-18" edge="1">
          <mxGeometry relative="1" as="geometry">
            <mxPoint x="260" y="507" as="targetPoint" />
          </mxGeometry>
        </mxCell>
        <mxCell id="qd15tuj_ind1l0wB-trp-18" value="基于深度学习模型，判断数值结构之间的关系" style="rounded=1;whiteSpace=wrap;html=1;" parent="qd15tuj_ind1l0wB-trp-1" vertex="1">
          <mxGeometry x="334" y="477" width="120" height="60" as="geometry" />
        </mxCell>
        <mxCell id="qd15tuj_ind1l0wB-trp-19" style="edgeStyle=orthogonalEdgeStyle;rounded=0;orthogonalLoop=1;jettySize=auto;html=1;entryX=1;entryY=0.5;entryDx=0;entryDy=0;endArrow=none;endFill=0;" parent="qd15tuj_ind1l0wB-trp-1" source="qd15tuj_ind1l0wB-trp-20" target="qd15tuj_ind1l0wB-trp-13" edge="1">
          <mxGeometry relative="1" as="geometry">
            <Array as="points">
              <mxPoint x="613" y="269" />
              <mxPoint x="485" y="269" />
              <mxPoint x="485" y="335" />
            </Array>
          </mxGeometry>
        </mxCell>
        <mxCell id="qd15tuj_ind1l0wB-trp-20" value="经预处理文本" style="swimlane;startSize=35;" parent="qd15tuj_ind1l0wB-trp-1" vertex="1">
          <mxGeometry x="559" y="172" width="158" height="70" as="geometry" />
        </mxCell>
        <mxCell id="qd15tuj_ind1l0wB-trp-21" value="里根号造价高达45亿美元" style="text;html=1;align=center;verticalAlign=middle;resizable=0;points=[];autosize=1;strokeColor=none;fillColor=none;" parent="qd15tuj_ind1l0wB-trp-20" vertex="1">
          <mxGeometry x="7.5" y="43" width="143" height="18" as="geometry" />
        </mxCell>
        <mxCell id="qd15tuj_ind1l0wB-trp-22" style="edgeStyle=orthogonalEdgeStyle;rounded=0;orthogonalLoop=1;jettySize=auto;html=1;endArrow=none;endFill=0;" parent="qd15tuj_ind1l0wB-trp-1" source="qd15tuj_ind1l0wB-trp-23" edge="1">
          <mxGeometry relative="1" as="geometry">
            <mxPoint x="593.5" y="544.6862505744486" as="targetPoint" />
          </mxGeometry>
        </mxCell>
        <mxCell id="qd15tuj_ind1l0wB-trp-23" value="数值信息单元" style="swimlane;startSize=34;" parent="qd15tuj_ind1l0wB-trp-1" vertex="1">
          <mxGeometry x="501" y="354" width="185" height="102" as="geometry" />
        </mxCell>
        <mxCell id="qd15tuj_ind1l0wB-trp-24" value="1.NUT:度量，&lt;br&gt;NUSRs:{Value:138，Unit:亿美元}" style="text;html=1;align=center;verticalAlign=middle;resizable=0;points=[];autosize=1;strokeColor=none;fillColor=none;" parent="qd15tuj_ind1l0wB-trp-23" vertex="1">
          <mxGeometry x="5" y="53.5" width="187" height="32" as="geometry" />
        </mxCell>
        <mxCell id="qd15tuj_ind1l0wB-trp-25" value="合并输出&#xa;NIR" style="swimlane;startSize=70;" parent="qd15tuj_ind1l0wB-trp-1" vertex="1">
          <mxGeometry x="648" y="499" width="122" height="70" as="geometry" />
        </mxCell>
        <mxCell id="qd15tuj_ind1l0wB-trp-26" style="edgeStyle=orthogonalEdgeStyle;rounded=0;orthogonalLoop=1;jettySize=auto;html=1;entryX=1;entryY=0.5;entryDx=0;entryDy=0;endArrow=none;endFill=0;" parent="qd15tuj_ind1l0wB-trp-1" target="qd15tuj_ind1l0wB-trp-18" edge="1">
          <mxGeometry relative="1" as="geometry">
            <mxPoint x="594" y="464" as="sourcePoint" />
            <Array as="points">
              <mxPoint x="594" y="507" />
            </Array>
          </mxGeometry>
        </mxCell>
      </root>
    </mxGraphModel>
  </diagram>
  <diagram id="Bw2Ed2spfXhhXWjDQQmP" name="Page-3">
    <mxGraphModel dx="1902" dy="997" grid="1" gridSize="10" guides="1" tooltips="1" connect="1" arrows="1" fold="1" page="1" pageScale="1" pageWidth="827" pageHeight="1169" math="0" shadow="0">
      <root>
        <mxCell id="gM9-KS1UxZ8fhK8OpAes-0" />
        <mxCell id="gM9-KS1UxZ8fhK8OpAes-1" parent="gM9-KS1UxZ8fhK8OpAes-0" />
        <mxCell id="gM9-KS1UxZ8fhK8OpAes-27" style="edgeStyle=orthogonalEdgeStyle;rounded=0;orthogonalLoop=1;jettySize=auto;html=1;entryX=0.5;entryY=0;entryDx=0;entryDy=0;" parent="gM9-KS1UxZ8fhK8OpAes-1" source="gM9-KS1UxZ8fhK8OpAes-5" target="gM9-KS1UxZ8fhK8OpAes-26" edge="1">
          <mxGeometry relative="1" as="geometry">
            <Array as="points">
              <mxPoint x="474" y="510" />
              <mxPoint x="560" y="510" />
            </Array>
          </mxGeometry>
        </mxCell>
        <mxCell id="gM9-KS1UxZ8fhK8OpAes-5" value="主题模型" style="rounded=1;whiteSpace=wrap;html=1;" parent="gM9-KS1UxZ8fhK8OpAes-1" vertex="1">
          <mxGeometry x="414" y="418" width="120" height="60" as="geometry" />
        </mxCell>
        <mxCell id="gM9-KS1UxZ8fhK8OpAes-42" style="edgeStyle=orthogonalEdgeStyle;rounded=0;orthogonalLoop=1;jettySize=auto;html=1;entryX=0.5;entryY=0;entryDx=0;entryDy=0;" parent="gM9-KS1UxZ8fhK8OpAes-1" source="gM9-KS1UxZ8fhK8OpAes-6" target="gM9-KS1UxZ8fhK8OpAes-26" edge="1">
          <mxGeometry relative="1" as="geometry" />
        </mxCell>
        <mxCell id="gM9-KS1UxZ8fhK8OpAes-6" value="TF-IDF" style="rounded=1;whiteSpace=wrap;html=1;" parent="gM9-KS1UxZ8fhK8OpAes-1" vertex="1">
          <mxGeometry x="600" y="419" width="120" height="60" as="geometry" />
        </mxCell>
        <mxCell id="gM9-KS1UxZ8fhK8OpAes-45" style="edgeStyle=orthogonalEdgeStyle;rounded=0;orthogonalLoop=1;jettySize=auto;html=1;entryX=0.5;entryY=0;entryDx=0;entryDy=0;" parent="gM9-KS1UxZ8fhK8OpAes-1" source="gM9-KS1UxZ8fhK8OpAes-7" target="gM9-KS1UxZ8fhK8OpAes-44" edge="1">
          <mxGeometry relative="1" as="geometry" />
        </mxCell>
        <mxCell id="gM9-KS1UxZ8fhK8OpAes-7" value="排序算法" style="rounded=1;whiteSpace=wrap;html=1;" parent="gM9-KS1UxZ8fhK8OpAes-1" vertex="1">
          <mxGeometry x="420" y="668" width="120" height="60" as="geometry" />
        </mxCell>
        <mxCell id="gM9-KS1UxZ8fhK8OpAes-46" style="edgeStyle=orthogonalEdgeStyle;rounded=0;orthogonalLoop=1;jettySize=auto;html=1;entryX=0.5;entryY=0;entryDx=0;entryDy=0;" parent="gM9-KS1UxZ8fhK8OpAes-1" source="gM9-KS1UxZ8fhK8OpAes-8" target="gM9-KS1UxZ8fhK8OpAes-44" edge="1">
          <mxGeometry relative="1" as="geometry" />
        </mxCell>
        <mxCell id="gM9-KS1UxZ8fhK8OpAes-8" value="聚类算法" style="rounded=1;whiteSpace=wrap;html=1;" parent="gM9-KS1UxZ8fhK8OpAes-1" vertex="1">
          <mxGeometry x="590" y="668" width="120" height="60" as="geometry" />
        </mxCell>
        <mxCell id="gM9-KS1UxZ8fhK8OpAes-43" style="edgeStyle=orthogonalEdgeStyle;rounded=0;orthogonalLoop=1;jettySize=auto;html=1;" parent="gM9-KS1UxZ8fhK8OpAes-1" source="gM9-KS1UxZ8fhK8OpAes-9" target="gM9-KS1UxZ8fhK8OpAes-6" edge="1">
          <mxGeometry relative="1" as="geometry">
            <Array as="points">
              <mxPoint x="480" y="340" />
              <mxPoint x="560" y="340" />
              <mxPoint x="560" y="380" />
              <mxPoint x="660" y="380" />
            </Array>
          </mxGeometry>
        </mxCell>
        <mxCell id="gM9-KS1UxZ8fhK8OpAes-9" value="命名实体识别" style="rounded=1;whiteSpace=wrap;html=1;" parent="gM9-KS1UxZ8fhK8OpAes-1" vertex="1">
          <mxGeometry x="420" y="250" width="120" height="60" as="geometry" />
        </mxCell>
        <mxCell id="gM9-KS1UxZ8fhK8OpAes-41" style="edgeStyle=orthogonalEdgeStyle;rounded=0;orthogonalLoop=1;jettySize=auto;html=1;entryX=0.5;entryY=0;entryDx=0;entryDy=0;" parent="gM9-KS1UxZ8fhK8OpAes-1" source="gM9-KS1UxZ8fhK8OpAes-10" target="gM9-KS1UxZ8fhK8OpAes-5" edge="1">
          <mxGeometry relative="1" as="geometry">
            <mxPoint x="470" y="380" as="targetPoint" />
            <Array as="points">
              <mxPoint x="660" y="340" />
              <mxPoint x="560" y="340" />
              <mxPoint x="560" y="380" />
              <mxPoint x="474" y="380" />
            </Array>
          </mxGeometry>
        </mxCell>
        <mxCell id="gM9-KS1UxZ8fhK8OpAes-10" value="实体指称扩充" style="rounded=1;whiteSpace=wrap;html=1;" parent="gM9-KS1UxZ8fhK8OpAes-1" vertex="1">
          <mxGeometry x="590" y="250" width="120" height="60" as="geometry" />
        </mxCell>
        <mxCell id="gM9-KS1UxZ8fhK8OpAes-38" style="edgeStyle=orthogonalEdgeStyle;rounded=0;orthogonalLoop=1;jettySize=auto;html=1;entryX=0.5;entryY=0;entryDx=0;entryDy=0;" parent="gM9-KS1UxZ8fhK8OpAes-1" source="gM9-KS1UxZ8fhK8OpAes-11" target="gM9-KS1UxZ8fhK8OpAes-9" edge="1">
          <mxGeometry relative="1" as="geometry" />
        </mxCell>
        <mxCell id="gM9-KS1UxZ8fhK8OpAes-39" style="edgeStyle=orthogonalEdgeStyle;rounded=0;orthogonalLoop=1;jettySize=auto;html=1;entryX=0.5;entryY=0;entryDx=0;entryDy=0;" parent="gM9-KS1UxZ8fhK8OpAes-1" source="gM9-KS1UxZ8fhK8OpAes-11" target="gM9-KS1UxZ8fhK8OpAes-10" edge="1">
          <mxGeometry relative="1" as="geometry" />
        </mxCell>
        <mxCell id="gM9-KS1UxZ8fhK8OpAes-11" value="输入" style="rounded=1;whiteSpace=wrap;html=1;" parent="gM9-KS1UxZ8fhK8OpAes-1" vertex="1">
          <mxGeometry x="510" y="130" width="120" height="60" as="geometry" />
        </mxCell>
        <mxCell id="gM9-KS1UxZ8fhK8OpAes-29" value="是" style="edgeStyle=orthogonalEdgeStyle;rounded=0;orthogonalLoop=1;jettySize=auto;html=1;" parent="gM9-KS1UxZ8fhK8OpAes-1" source="gM9-KS1UxZ8fhK8OpAes-26" target="gM9-KS1UxZ8fhK8OpAes-7" edge="1">
          <mxGeometry x="-0.1789" relative="1" as="geometry">
            <Array as="points">
              <mxPoint x="560" y="608" />
              <mxPoint x="480" y="608" />
            </Array>
            <mxPoint as="offset" />
          </mxGeometry>
        </mxCell>
        <mxCell id="gM9-KS1UxZ8fhK8OpAes-30" style="edgeStyle=orthogonalEdgeStyle;rounded=0;orthogonalLoop=1;jettySize=auto;html=1;entryX=0.5;entryY=0;entryDx=0;entryDy=0;exitX=0.5;exitY=1;exitDx=0;exitDy=0;" parent="gM9-KS1UxZ8fhK8OpAes-1" source="gM9-KS1UxZ8fhK8OpAes-26" target="gM9-KS1UxZ8fhK8OpAes-8" edge="1">
          <mxGeometry relative="1" as="geometry">
            <Array as="points">
              <mxPoint x="560" y="608" />
              <mxPoint x="650" y="608" />
            </Array>
          </mxGeometry>
        </mxCell>
        <mxCell id="gM9-KS1UxZ8fhK8OpAes-31" value="否" style="edgeLabel;html=1;align=center;verticalAlign=middle;resizable=0;points=[];" parent="gM9-KS1UxZ8fhK8OpAes-30" vertex="1" connectable="0">
          <mxGeometry x="-0.1328" y="-1" relative="1" as="geometry">
            <mxPoint x="-8" as="offset" />
          </mxGeometry>
        </mxCell>
        <mxCell id="gM9-KS1UxZ8fhK8OpAes-26" value="是否有匹配" style="rhombus;whiteSpace=wrap;html=1;" parent="gM9-KS1UxZ8fhK8OpAes-1" vertex="1">
          <mxGeometry x="520" y="541.5" width="80" height="37" as="geometry" />
        </mxCell>
        <mxCell id="gM9-KS1UxZ8fhK8OpAes-44" value="输出" style="rounded=1;whiteSpace=wrap;html=1;" parent="gM9-KS1UxZ8fhK8OpAes-1" vertex="1">
          <mxGeometry x="510" y="770" width="120" height="60" as="geometry" />
        </mxCell>
      </root>
    </mxGraphModel>
  </diagram>
  <diagram id="PL-9wMAA02neE-lzEeJw" name="离散">
    <mxGraphModel dx="1902" dy="997" grid="1" gridSize="10" guides="1" tooltips="1" connect="1" arrows="1" fold="1" page="1" pageScale="1" pageWidth="1689" pageHeight="1980" math="0" shadow="0">
      <root>
        <mxCell id="0" />
        <mxCell id="1" parent="0" />
        <mxCell id="ntTTZY2OioaLef3FtTBc-1" value="&lt;font style=&quot;font-size: 16px;&quot;&gt;...&lt;br&gt;&lt;br&gt;&lt;/font&gt;" style="ellipse;whiteSpace=wrap;html=1;fontStyle=1" vertex="1" parent="1">
          <mxGeometry x="1117.62" y="3068" width="63.47" height="162" as="geometry" />
        </mxCell>
        <mxCell id="ntTTZY2OioaLef3FtTBc-2" value="" style="ellipse;whiteSpace=wrap;html=1;" vertex="1" parent="1">
          <mxGeometry x="1129.0600000000002" y="1016.75" width="145.87" height="52.5" as="geometry" />
        </mxCell>
        <mxCell id="ntTTZY2OioaLef3FtTBc-3" value="" style="ellipse;whiteSpace=wrap;html=1;aspect=fixed;fillColor=#f8cecc;strokeColor=#b85450;fontStyle=1" vertex="1" parent="1">
          <mxGeometry x="218" y="2202" width="32" height="32" as="geometry" />
        </mxCell>
        <mxCell id="ntTTZY2OioaLef3FtTBc-4" value="" style="ellipse;whiteSpace=wrap;html=1;aspect=fixed;fontStyle=1" vertex="1" parent="1">
          <mxGeometry x="370" y="2202" width="32" height="32" as="geometry" />
        </mxCell>
        <mxCell id="ntTTZY2OioaLef3FtTBc-5" value="" style="ellipse;whiteSpace=wrap;html=1;aspect=fixed;fontStyle=1" vertex="1" parent="1">
          <mxGeometry x="673" y="2202" width="32" height="32" as="geometry" />
        </mxCell>
        <mxCell id="ntTTZY2OioaLef3FtTBc-6" value="" style="ellipse;whiteSpace=wrap;html=1;aspect=fixed;fontStyle=1" vertex="1" parent="1">
          <mxGeometry x="522" y="2202" width="32" height="32" as="geometry" />
        </mxCell>
        <mxCell id="ntTTZY2OioaLef3FtTBc-7" value="" style="ellipse;whiteSpace=wrap;html=1;aspect=fixed;fontStyle=1" vertex="1" parent="1">
          <mxGeometry x="219" y="2397" width="32" height="32" as="geometry" />
        </mxCell>
        <mxCell id="ntTTZY2OioaLef3FtTBc-8" value="" style="ellipse;whiteSpace=wrap;html=1;aspect=fixed;fillColor=#f8cecc;strokeColor=#b85450;fontStyle=1" vertex="1" parent="1">
          <mxGeometry x="371" y="2397" width="32" height="32" as="geometry" />
        </mxCell>
        <mxCell id="ntTTZY2OioaLef3FtTBc-9" value="" style="ellipse;whiteSpace=wrap;html=1;aspect=fixed;fontStyle=1" vertex="1" parent="1">
          <mxGeometry x="674" y="2397" width="32" height="32" as="geometry" />
        </mxCell>
        <mxCell id="ntTTZY2OioaLef3FtTBc-10" value="" style="ellipse;whiteSpace=wrap;html=1;aspect=fixed;fontStyle=1" vertex="1" parent="1">
          <mxGeometry x="523" y="2397" width="32" height="32" as="geometry" />
        </mxCell>
        <mxCell id="ntTTZY2OioaLef3FtTBc-11" value="" style="ellipse;whiteSpace=wrap;html=1;aspect=fixed;fontStyle=1" vertex="1" parent="1">
          <mxGeometry x="219" y="2591.75" width="32" height="32" as="geometry" />
        </mxCell>
        <mxCell id="ntTTZY2OioaLef3FtTBc-12" value="" style="ellipse;whiteSpace=wrap;html=1;aspect=fixed;fontStyle=1" vertex="1" parent="1">
          <mxGeometry x="371" y="2591.75" width="32" height="32" as="geometry" />
        </mxCell>
        <mxCell id="ntTTZY2OioaLef3FtTBc-13" value="" style="ellipse;whiteSpace=wrap;html=1;aspect=fixed;fontStyle=1" vertex="1" parent="1">
          <mxGeometry x="674" y="2591.75" width="32" height="32" as="geometry" />
        </mxCell>
        <mxCell id="ntTTZY2OioaLef3FtTBc-14" value="" style="ellipse;whiteSpace=wrap;html=1;aspect=fixed;fillColor=#f8cecc;strokeColor=#b85450;fontStyle=1" vertex="1" parent="1">
          <mxGeometry x="523" y="2591.75" width="32" height="32" as="geometry" />
        </mxCell>
        <mxCell id="ntTTZY2OioaLef3FtTBc-15" value="" style="ellipse;whiteSpace=wrap;html=1;aspect=fixed;fontStyle=1" vertex="1" parent="1">
          <mxGeometry x="218" y="2785" width="32" height="32" as="geometry" />
        </mxCell>
        <mxCell id="ntTTZY2OioaLef3FtTBc-16" value="" style="ellipse;whiteSpace=wrap;html=1;aspect=fixed;fontStyle=1" vertex="1" parent="1">
          <mxGeometry x="370" y="2785" width="32" height="32" as="geometry" />
        </mxCell>
        <mxCell id="ntTTZY2OioaLef3FtTBc-17" value="" style="ellipse;whiteSpace=wrap;html=1;aspect=fixed;fontStyle=1;fillColor=#f8cecc;strokeColor=#b85450;" vertex="1" parent="1">
          <mxGeometry x="673" y="2785" width="32" height="32" as="geometry" />
        </mxCell>
        <mxCell id="ntTTZY2OioaLef3FtTBc-18" value="" style="ellipse;whiteSpace=wrap;html=1;aspect=fixed;fontStyle=1" vertex="1" parent="1">
          <mxGeometry x="522" y="2785" width="32" height="32" as="geometry" />
        </mxCell>
        <mxCell id="ntTTZY2OioaLef3FtTBc-19" style="rounded=0;orthogonalLoop=1;jettySize=auto;html=1;" edge="1" parent="1" source="ntTTZY2OioaLef3FtTBc-20" target="ntTTZY2OioaLef3FtTBc-2">
          <mxGeometry relative="1" as="geometry" />
        </mxCell>
        <mxCell id="ntTTZY2OioaLef3FtTBc-20" value="" style="ellipse;whiteSpace=wrap;html=1;aspect=fixed;fillColor=#f8cecc;strokeColor=#b85450;" vertex="1" parent="1">
          <mxGeometry x="1069.5" y="892" width="32" height="32" as="geometry" />
        </mxCell>
        <mxCell id="ntTTZY2OioaLef3FtTBc-21" value="" style="ellipse;whiteSpace=wrap;html=1;aspect=fixed;" vertex="1" parent="1">
          <mxGeometry x="1186" y="1027" width="32" height="32" as="geometry" />
        </mxCell>
        <mxCell id="ntTTZY2OioaLef3FtTBc-22" value="" style="ellipse;whiteSpace=wrap;html=1;aspect=fixed;" vertex="1" parent="1">
          <mxGeometry x="1143" y="1027" width="32" height="32" as="geometry" />
        </mxCell>
        <mxCell id="ntTTZY2OioaLef3FtTBc-23" value="" style="ellipse;whiteSpace=wrap;html=1;aspect=fixed;" vertex="1" parent="1">
          <mxGeometry x="1230" y="1027" width="32" height="32" as="geometry" />
        </mxCell>
        <mxCell id="ntTTZY2OioaLef3FtTBc-24" style="edgeStyle=none;rounded=0;orthogonalLoop=1;jettySize=auto;html=1;entryX=0.5;entryY=0;entryDx=0;entryDy=0;" edge="1" parent="1" source="ntTTZY2OioaLef3FtTBc-2" target="ntTTZY2OioaLef3FtTBc-2">
          <mxGeometry relative="1" as="geometry" />
        </mxCell>
        <mxCell id="ntTTZY2OioaLef3FtTBc-25" value="" style="ellipse;whiteSpace=wrap;html=1;" vertex="1" parent="1">
          <mxGeometry x="1125.5600000000002" y="1191.75" width="145.87" height="52.5" as="geometry" />
        </mxCell>
        <mxCell id="ntTTZY2OioaLef3FtTBc-26" style="rounded=0;orthogonalLoop=1;jettySize=auto;html=1;" edge="1" parent="1" source="ntTTZY2OioaLef3FtTBc-28" target="ntTTZY2OioaLef3FtTBc-25">
          <mxGeometry relative="1" as="geometry" />
        </mxCell>
        <mxCell id="ntTTZY2OioaLef3FtTBc-27" style="edgeStyle=none;rounded=0;orthogonalLoop=1;jettySize=auto;html=1;" edge="1" parent="1" source="ntTTZY2OioaLef3FtTBc-28" target="ntTTZY2OioaLef3FtTBc-32">
          <mxGeometry relative="1" as="geometry" />
        </mxCell>
        <mxCell id="ntTTZY2OioaLef3FtTBc-28" value="" style="ellipse;whiteSpace=wrap;html=1;aspect=fixed;fillColor=#f8cecc;strokeColor=#b85450;" vertex="1" parent="1">
          <mxGeometry x="1066" y="1067" width="32" height="32" as="geometry" />
        </mxCell>
        <mxCell id="ntTTZY2OioaLef3FtTBc-29" value="" style="ellipse;whiteSpace=wrap;html=1;aspect=fixed;" vertex="1" parent="1">
          <mxGeometry x="1154" y="1202" width="32" height="32" as="geometry" />
        </mxCell>
        <mxCell id="ntTTZY2OioaLef3FtTBc-30" value="" style="ellipse;whiteSpace=wrap;html=1;aspect=fixed;" vertex="1" parent="1">
          <mxGeometry x="1208" y="1202" width="32" height="32" as="geometry" />
        </mxCell>
        <mxCell id="ntTTZY2OioaLef3FtTBc-31" style="edgeStyle=none;rounded=0;orthogonalLoop=1;jettySize=auto;html=1;entryX=0.5;entryY=0;entryDx=0;entryDy=0;" edge="1" parent="1" source="ntTTZY2OioaLef3FtTBc-25" target="ntTTZY2OioaLef3FtTBc-25">
          <mxGeometry relative="1" as="geometry" />
        </mxCell>
        <mxCell id="ntTTZY2OioaLef3FtTBc-32" value="" style="ellipse;whiteSpace=wrap;html=1;" vertex="1" parent="1">
          <mxGeometry x="920.1300000000001" y="1191.75" width="145.87" height="52.5" as="geometry" />
        </mxCell>
        <mxCell id="ntTTZY2OioaLef3FtTBc-33" value="" style="ellipse;whiteSpace=wrap;html=1;aspect=fixed;" vertex="1" parent="1">
          <mxGeometry x="977.0699999999999" y="1202" width="32" height="32" as="geometry" />
        </mxCell>
        <mxCell id="ntTTZY2OioaLef3FtTBc-34" style="edgeStyle=none;rounded=0;orthogonalLoop=1;jettySize=auto;html=1;entryX=0.5;entryY=0;entryDx=0;entryDy=0;" edge="1" parent="1" source="ntTTZY2OioaLef3FtTBc-32" target="ntTTZY2OioaLef3FtTBc-32">
          <mxGeometry relative="1" as="geometry" />
        </mxCell>
        <mxCell id="ntTTZY2OioaLef3FtTBc-35" value="" style="ellipse;whiteSpace=wrap;html=1;" vertex="1" parent="1">
          <mxGeometry x="1111.7800000000002" y="1401.75" width="145.87" height="52.5" as="geometry" />
        </mxCell>
        <mxCell id="ntTTZY2OioaLef3FtTBc-36" style="rounded=0;orthogonalLoop=1;jettySize=auto;html=1;" edge="1" parent="1" source="ntTTZY2OioaLef3FtTBc-38" target="ntTTZY2OioaLef3FtTBc-35">
          <mxGeometry relative="1" as="geometry" />
        </mxCell>
        <mxCell id="ntTTZY2OioaLef3FtTBc-37" style="edgeStyle=none;rounded=0;orthogonalLoop=1;jettySize=auto;html=1;" edge="1" parent="1" source="ntTTZY2OioaLef3FtTBc-38" target="ntTTZY2OioaLef3FtTBc-41">
          <mxGeometry relative="1" as="geometry" />
        </mxCell>
        <mxCell id="ntTTZY2OioaLef3FtTBc-38" value="" style="ellipse;whiteSpace=wrap;html=1;aspect=fixed;fillColor=#f8cecc;strokeColor=#b85450;" vertex="1" parent="1">
          <mxGeometry x="1052.22" y="1277" width="32" height="32" as="geometry" />
        </mxCell>
        <mxCell id="ntTTZY2OioaLef3FtTBc-39" value="" style="ellipse;whiteSpace=wrap;html=1;aspect=fixed;" vertex="1" parent="1">
          <mxGeometry x="1167" y="1412" width="32" height="32" as="geometry" />
        </mxCell>
        <mxCell id="ntTTZY2OioaLef3FtTBc-40" style="edgeStyle=none;rounded=0;orthogonalLoop=1;jettySize=auto;html=1;entryX=0.5;entryY=0;entryDx=0;entryDy=0;" edge="1" parent="1" source="ntTTZY2OioaLef3FtTBc-35" target="ntTTZY2OioaLef3FtTBc-35">
          <mxGeometry relative="1" as="geometry" />
        </mxCell>
        <mxCell id="ntTTZY2OioaLef3FtTBc-41" value="" style="ellipse;whiteSpace=wrap;html=1;" vertex="1" parent="1">
          <mxGeometry x="909.0000000000001" y="1401.75" width="145.87" height="52.5" as="geometry" />
        </mxCell>
        <mxCell id="ntTTZY2OioaLef3FtTBc-42" value="" style="ellipse;whiteSpace=wrap;html=1;aspect=fixed;" vertex="1" parent="1">
          <mxGeometry x="995" y="1412" width="32" height="32" as="geometry" />
        </mxCell>
        <mxCell id="ntTTZY2OioaLef3FtTBc-43" style="edgeStyle=none;rounded=0;orthogonalLoop=1;jettySize=auto;html=1;entryX=0.5;entryY=0;entryDx=0;entryDy=0;" edge="1" parent="1" source="ntTTZY2OioaLef3FtTBc-41" target="ntTTZY2OioaLef3FtTBc-41">
          <mxGeometry relative="1" as="geometry" />
        </mxCell>
        <mxCell id="ntTTZY2OioaLef3FtTBc-44" value="" style="ellipse;whiteSpace=wrap;html=1;aspect=fixed;" vertex="1" parent="1">
          <mxGeometry x="934" y="1412" width="32" height="32" as="geometry" />
        </mxCell>
        <mxCell id="ntTTZY2OioaLef3FtTBc-45" value="" style="ellipse;whiteSpace=wrap;html=1;fontStyle=1" vertex="1" parent="1">
          <mxGeometry x="1163.2800000000002" y="2623.75" width="145.87" height="52.5" as="geometry" />
        </mxCell>
        <mxCell id="ntTTZY2OioaLef3FtTBc-46" style="rounded=0;orthogonalLoop=1;jettySize=auto;html=1;fontStyle=1" edge="1" parent="1" source="ntTTZY2OioaLef3FtTBc-48" target="ntTTZY2OioaLef3FtTBc-45">
          <mxGeometry relative="1" as="geometry" />
        </mxCell>
        <mxCell id="ntTTZY2OioaLef3FtTBc-47" style="edgeStyle=none;rounded=0;orthogonalLoop=1;jettySize=auto;html=1;fontStyle=1" edge="1" parent="1" source="ntTTZY2OioaLef3FtTBc-48" target="ntTTZY2OioaLef3FtTBc-51">
          <mxGeometry relative="1" as="geometry" />
        </mxCell>
        <mxCell id="ntTTZY2OioaLef3FtTBc-48" value="" style="ellipse;whiteSpace=wrap;html=1;aspect=fixed;fillColor=#f8cecc;strokeColor=#b85450;fontStyle=1" vertex="1" parent="1">
          <mxGeometry x="1118" y="2535" width="32" height="32" as="geometry" />
        </mxCell>
        <mxCell id="ntTTZY2OioaLef3FtTBc-49" value="" style="ellipse;whiteSpace=wrap;html=1;aspect=fixed;fontStyle=1" vertex="1" parent="1">
          <mxGeometry x="1225.71" y="2639.5" width="21" height="21" as="geometry" />
        </mxCell>
        <mxCell id="ntTTZY2OioaLef3FtTBc-50" style="edgeStyle=none;rounded=0;orthogonalLoop=1;jettySize=auto;html=1;entryX=0.5;entryY=0;entryDx=0;entryDy=0;fontStyle=1" edge="1" parent="1" source="ntTTZY2OioaLef3FtTBc-45" target="ntTTZY2OioaLef3FtTBc-45">
          <mxGeometry relative="1" as="geometry" />
        </mxCell>
        <mxCell id="ntTTZY2OioaLef3FtTBc-51" value="" style="ellipse;whiteSpace=wrap;html=1;fontStyle=1" vertex="1" parent="1">
          <mxGeometry x="960.5000000000001" y="2623.75" width="145.87" height="52.5" as="geometry" />
        </mxCell>
        <mxCell id="ntTTZY2OioaLef3FtTBc-52" style="edgeStyle=none;rounded=0;orthogonalLoop=1;jettySize=auto;html=1;entryX=0.5;entryY=0;entryDx=0;entryDy=0;fontStyle=1" edge="1" parent="1" source="ntTTZY2OioaLef3FtTBc-51" target="ntTTZY2OioaLef3FtTBc-51">
          <mxGeometry relative="1" as="geometry" />
        </mxCell>
        <mxCell id="ntTTZY2OioaLef3FtTBc-53" value="" style="ellipse;whiteSpace=wrap;html=1;aspect=fixed;fontStyle=1" vertex="1" parent="1">
          <mxGeometry x="994.5" y="2639.5" width="21" height="21" as="geometry" />
        </mxCell>
        <mxCell id="ntTTZY2OioaLef3FtTBc-54" value="" style="ellipse;whiteSpace=wrap;html=1;aspect=fixed;fontStyle=1" vertex="1" parent="1">
          <mxGeometry x="1049.5" y="2639.5" width="21" height="21" as="geometry" />
        </mxCell>
        <mxCell id="ntTTZY2OioaLef3FtTBc-55" value="" style="ellipse;whiteSpace=wrap;html=1;fontStyle=1" vertex="1" parent="1">
          <mxGeometry x="1164.1000000000004" y="2231.75" width="145.87" height="52.5" as="geometry" />
        </mxCell>
        <mxCell id="ntTTZY2OioaLef3FtTBc-56" style="rounded=0;orthogonalLoop=1;jettySize=auto;html=1;fontStyle=1" edge="1" parent="1" source="ntTTZY2OioaLef3FtTBc-58" target="ntTTZY2OioaLef3FtTBc-55">
          <mxGeometry relative="1" as="geometry" />
        </mxCell>
        <mxCell id="ntTTZY2OioaLef3FtTBc-57" style="edgeStyle=none;rounded=0;orthogonalLoop=1;jettySize=auto;html=1;fontStyle=1" edge="1" parent="1" source="ntTTZY2OioaLef3FtTBc-58" target="ntTTZY2OioaLef3FtTBc-61">
          <mxGeometry relative="1" as="geometry" />
        </mxCell>
        <mxCell id="ntTTZY2OioaLef3FtTBc-58" value="" style="ellipse;whiteSpace=wrap;html=1;aspect=fixed;fillColor=#f8cecc;strokeColor=#b85450;fontStyle=1" vertex="1" parent="1">
          <mxGeometry x="1113.8200000000002" y="2144" width="32" height="32" as="geometry" />
        </mxCell>
        <mxCell id="ntTTZY2OioaLef3FtTBc-59" value="" style="ellipse;whiteSpace=wrap;html=1;aspect=fixed;fontStyle=1" vertex="1" parent="1">
          <mxGeometry x="1226.5300000000002" y="2247.5" width="21" height="21" as="geometry" />
        </mxCell>
        <mxCell id="ntTTZY2OioaLef3FtTBc-60" style="edgeStyle=none;rounded=0;orthogonalLoop=1;jettySize=auto;html=1;entryX=0.5;entryY=0;entryDx=0;entryDy=0;fontStyle=1" edge="1" parent="1" source="ntTTZY2OioaLef3FtTBc-55" target="ntTTZY2OioaLef3FtTBc-55">
          <mxGeometry relative="1" as="geometry" />
        </mxCell>
        <mxCell id="ntTTZY2OioaLef3FtTBc-61" value="" style="ellipse;whiteSpace=wrap;html=1;fontStyle=1" vertex="1" parent="1">
          <mxGeometry x="961.3200000000002" y="2231.75" width="145.87" height="52.5" as="geometry" />
        </mxCell>
        <mxCell id="ntTTZY2OioaLef3FtTBc-62" style="edgeStyle=none;rounded=0;orthogonalLoop=1;jettySize=auto;html=1;entryX=0.5;entryY=0;entryDx=0;entryDy=0;fontStyle=1" edge="1" parent="1" source="ntTTZY2OioaLef3FtTBc-61" target="ntTTZY2OioaLef3FtTBc-61">
          <mxGeometry relative="1" as="geometry" />
        </mxCell>
        <mxCell id="ntTTZY2OioaLef3FtTBc-63" value="" style="ellipse;whiteSpace=wrap;html=1;aspect=fixed;fontStyle=1" vertex="1" parent="1">
          <mxGeometry x="1199.0400000000002" y="2247.5" width="21" height="21" as="geometry" />
        </mxCell>
        <mxCell id="ntTTZY2OioaLef3FtTBc-64" value="" style="ellipse;whiteSpace=wrap;html=1;aspect=fixed;fontStyle=1" vertex="1" parent="1">
          <mxGeometry x="1254.0400000000002" y="2247.5" width="21" height="21" as="geometry" />
        </mxCell>
        <mxCell id="ntTTZY2OioaLef3FtTBc-65" value="" style="ellipse;whiteSpace=wrap;html=1;fontStyle=1" vertex="1" parent="1">
          <mxGeometry x="1158.27" y="2835.75" width="145.87" height="52.5" as="geometry" />
        </mxCell>
        <mxCell id="ntTTZY2OioaLef3FtTBc-66" style="rounded=0;orthogonalLoop=1;jettySize=auto;html=1;fontStyle=1" edge="1" parent="1" source="ntTTZY2OioaLef3FtTBc-68" target="ntTTZY2OioaLef3FtTBc-65">
          <mxGeometry relative="1" as="geometry" />
        </mxCell>
        <mxCell id="ntTTZY2OioaLef3FtTBc-67" style="edgeStyle=none;rounded=0;orthogonalLoop=1;jettySize=auto;html=1;fontStyle=1" edge="1" parent="1" source="ntTTZY2OioaLef3FtTBc-68" target="ntTTZY2OioaLef3FtTBc-69">
          <mxGeometry relative="1" as="geometry" />
        </mxCell>
        <mxCell id="ntTTZY2OioaLef3FtTBc-68" value="" style="ellipse;whiteSpace=wrap;html=1;aspect=fixed;fillColor=#f8cecc;strokeColor=#b85450;fontStyle=1" vertex="1" parent="1">
          <mxGeometry x="1112.9899999999998" y="2738" width="32" height="32" as="geometry" />
        </mxCell>
        <mxCell id="ntTTZY2OioaLef3FtTBc-69" value="" style="ellipse;whiteSpace=wrap;html=1;fontStyle=1" vertex="1" parent="1">
          <mxGeometry x="955.4900000000001" y="2835.75" width="145.87" height="52.5" as="geometry" />
        </mxCell>
        <mxCell id="ntTTZY2OioaLef3FtTBc-70" style="edgeStyle=none;rounded=0;orthogonalLoop=1;jettySize=auto;html=1;entryX=0.5;entryY=0;entryDx=0;entryDy=0;fontStyle=1" edge="1" parent="1" source="ntTTZY2OioaLef3FtTBc-69" target="ntTTZY2OioaLef3FtTBc-69">
          <mxGeometry relative="1" as="geometry" />
        </mxCell>
        <mxCell id="ntTTZY2OioaLef3FtTBc-71" value="" style="ellipse;whiteSpace=wrap;html=1;aspect=fixed;fontStyle=1" vertex="1" parent="1">
          <mxGeometry x="1017.9100000000003" y="2851.5" width="21" height="21" as="geometry" />
        </mxCell>
        <mxCell id="ntTTZY2OioaLef3FtTBc-72" style="edgeStyle=none;rounded=0;orthogonalLoop=1;jettySize=auto;html=1;entryX=0.5;entryY=0;entryDx=0;entryDy=0;fontStyle=1" edge="1" parent="1">
          <mxGeometry relative="1" as="geometry">
            <mxPoint x="1028.4150000000009" y="2835.75" as="sourcePoint" />
            <mxPoint x="1028.4150000000009" y="2835.75" as="targetPoint" />
          </mxGeometry>
        </mxCell>
        <mxCell id="ntTTZY2OioaLef3FtTBc-73" value="" style="ellipse;whiteSpace=wrap;html=1;aspect=fixed;fontStyle=1" vertex="1" parent="1">
          <mxGeometry x="990.4200000000002" y="2851.5" width="21" height="21" as="geometry" />
        </mxCell>
        <mxCell id="ntTTZY2OioaLef3FtTBc-74" value="" style="ellipse;whiteSpace=wrap;html=1;aspect=fixed;fontStyle=1" vertex="1" parent="1">
          <mxGeometry x="1045.42" y="2851.5" width="21" height="21" as="geometry" />
        </mxCell>
        <mxCell id="ntTTZY2OioaLef3FtTBc-75" value="" style="ellipse;whiteSpace=wrap;html=1;fontStyle=1" vertex="1" parent="1">
          <mxGeometry x="1160.2800000000002" y="2420.75" width="145.87" height="52.5" as="geometry" />
        </mxCell>
        <mxCell id="ntTTZY2OioaLef3FtTBc-76" style="rounded=0;orthogonalLoop=1;jettySize=auto;html=1;fontStyle=1" edge="1" parent="1" source="ntTTZY2OioaLef3FtTBc-78" target="ntTTZY2OioaLef3FtTBc-75">
          <mxGeometry relative="1" as="geometry" />
        </mxCell>
        <mxCell id="ntTTZY2OioaLef3FtTBc-77" style="edgeStyle=none;rounded=0;orthogonalLoop=1;jettySize=auto;html=1;fontStyle=1" edge="1" parent="1" source="ntTTZY2OioaLef3FtTBc-78" target="ntTTZY2OioaLef3FtTBc-80">
          <mxGeometry relative="1" as="geometry" />
        </mxCell>
        <mxCell id="ntTTZY2OioaLef3FtTBc-78" value="" style="ellipse;whiteSpace=wrap;html=1;aspect=fixed;fillColor=#f8cecc;strokeColor=#b85450;fontStyle=1" vertex="1" parent="1">
          <mxGeometry x="1113" y="2325" width="32" height="32" as="geometry" />
        </mxCell>
        <mxCell id="ntTTZY2OioaLef3FtTBc-79" style="edgeStyle=none;rounded=0;orthogonalLoop=1;jettySize=auto;html=1;entryX=0.5;entryY=0;entryDx=0;entryDy=0;fontStyle=1" edge="1" parent="1" source="ntTTZY2OioaLef3FtTBc-75" target="ntTTZY2OioaLef3FtTBc-75">
          <mxGeometry relative="1" as="geometry" />
        </mxCell>
        <mxCell id="ntTTZY2OioaLef3FtTBc-80" value="" style="ellipse;whiteSpace=wrap;html=1;fontStyle=1" vertex="1" parent="1">
          <mxGeometry x="957.5000000000001" y="2420.75" width="145.87" height="52.5" as="geometry" />
        </mxCell>
        <mxCell id="ntTTZY2OioaLef3FtTBc-81" style="edgeStyle=none;rounded=0;orthogonalLoop=1;jettySize=auto;html=1;entryX=0.5;entryY=0;entryDx=0;entryDy=0;fontStyle=1" edge="1" parent="1" source="ntTTZY2OioaLef3FtTBc-80" target="ntTTZY2OioaLef3FtTBc-80">
          <mxGeometry relative="1" as="geometry" />
        </mxCell>
        <mxCell id="ntTTZY2OioaLef3FtTBc-82" value="" style="ellipse;whiteSpace=wrap;html=1;aspect=fixed;fontStyle=1" vertex="1" parent="1">
          <mxGeometry x="1020.5" y="2435.5" width="21" height="21" as="geometry" />
        </mxCell>
        <mxCell id="ntTTZY2OioaLef3FtTBc-83" style="edgeStyle=none;rounded=0;orthogonalLoop=1;jettySize=auto;html=1;entryX=0.5;entryY=0;entryDx=0;entryDy=0;fontStyle=1" edge="1" parent="1">
          <mxGeometry relative="1" as="geometry">
            <mxPoint x="1231.4349999999995" y="2420.75" as="sourcePoint" />
            <mxPoint x="1231.4349999999995" y="2420.75" as="targetPoint" />
          </mxGeometry>
        </mxCell>
        <mxCell id="ntTTZY2OioaLef3FtTBc-84" value="" style="ellipse;whiteSpace=wrap;html=1;aspect=fixed;fontStyle=1" vertex="1" parent="1">
          <mxGeometry x="1192.5" y="2436.5" width="21" height="21" as="geometry" />
        </mxCell>
        <mxCell id="ntTTZY2OioaLef3FtTBc-85" value="" style="ellipse;whiteSpace=wrap;html=1;aspect=fixed;fontStyle=1" vertex="1" parent="1">
          <mxGeometry x="1247.5" y="2436.5" width="21" height="21" as="geometry" />
        </mxCell>
        <mxCell id="ntTTZY2OioaLef3FtTBc-86" value="" style="shape=flexArrow;endArrow=classic;html=1;rounded=0;endWidth=34.666666666666664;endSize=5.88;fillColor=#dae8fc;strokeColor=#6c8ebf;fontStyle=1" edge="1" parent="1">
          <mxGeometry width="50" height="50" relative="1" as="geometry">
            <mxPoint x="780.5" y="2218" as="sourcePoint" />
            <mxPoint x="872.5" y="2217.33" as="targetPoint" />
          </mxGeometry>
        </mxCell>
        <mxCell id="ntTTZY2OioaLef3FtTBc-87" value="" style="shape=flexArrow;endArrow=classic;html=1;rounded=0;endWidth=34.666666666666664;endSize=5.88;fillColor=#dae8fc;strokeColor=#6c8ebf;fontStyle=1" edge="1" parent="1">
          <mxGeometry width="50" height="50" relative="1" as="geometry">
            <mxPoint x="781.5" y="2413" as="sourcePoint" />
            <mxPoint x="873.5" y="2412.33" as="targetPoint" />
          </mxGeometry>
        </mxCell>
        <mxCell id="ntTTZY2OioaLef3FtTBc-88" value="" style="shape=flexArrow;endArrow=classic;html=1;rounded=0;endWidth=34.666666666666664;endSize=5.88;fillColor=#dae8fc;strokeColor=#6c8ebf;fontStyle=1" edge="1" parent="1">
          <mxGeometry width="50" height="50" relative="1" as="geometry">
            <mxPoint x="773.5" y="2607.75" as="sourcePoint" />
            <mxPoint x="865.5" y="2607.08" as="targetPoint" />
          </mxGeometry>
        </mxCell>
        <mxCell id="ntTTZY2OioaLef3FtTBc-89" value="" style="shape=flexArrow;endArrow=classic;html=1;rounded=0;endWidth=34.666666666666664;endSize=5.88;fillColor=#dae8fc;strokeColor=#6c8ebf;fontStyle=1" edge="1" parent="1">
          <mxGeometry width="50" height="50" relative="1" as="geometry">
            <mxPoint x="773.5" y="2801" as="sourcePoint" />
            <mxPoint x="865.5" y="2800.33" as="targetPoint" />
          </mxGeometry>
        </mxCell>
        <mxCell id="ntTTZY2OioaLef3FtTBc-90" style="edgeStyle=none;rounded=0;orthogonalLoop=1;jettySize=auto;html=1;entryX=1;entryY=0;entryDx=0;entryDy=0;endArrow=none;endFill=0;exitX=0.202;exitY=0.924;exitDx=0;exitDy=0;exitPerimeter=0;fontColor=#383838;" edge="1" parent="1" source="ntTTZY2OioaLef3FtTBc-96" target="ntTTZY2OioaLef3FtTBc-99">
          <mxGeometry relative="1" as="geometry" />
        </mxCell>
        <mxCell id="ntTTZY2OioaLef3FtTBc-91" value="4" style="edgeLabel;html=1;align=center;verticalAlign=middle;resizable=0;points=[];fontSize=14;fontColor=#383838;" vertex="1" connectable="0" parent="ntTTZY2OioaLef3FtTBc-90">
          <mxGeometry x="-0.0561" relative="1" as="geometry">
            <mxPoint as="offset" />
          </mxGeometry>
        </mxCell>
        <mxCell id="ntTTZY2OioaLef3FtTBc-92" style="edgeStyle=none;rounded=0;orthogonalLoop=1;jettySize=auto;html=1;entryX=0.5;entryY=0;entryDx=0;entryDy=0;endArrow=none;endFill=0;fillColor=#f8cecc;strokeColor=#b85450;strokeWidth=3;fontColor=#383838;" edge="1" parent="1" source="ntTTZY2OioaLef3FtTBc-96" target="ntTTZY2OioaLef3FtTBc-103">
          <mxGeometry relative="1" as="geometry" />
        </mxCell>
        <mxCell id="ntTTZY2OioaLef3FtTBc-93" value="2" style="edgeLabel;html=1;align=center;verticalAlign=middle;resizable=0;points=[];fontSize=14;fontColor=#383838;" vertex="1" connectable="0" parent="ntTTZY2OioaLef3FtTBc-92">
          <mxGeometry x="0.1408" relative="1" as="geometry">
            <mxPoint as="offset" />
          </mxGeometry>
        </mxCell>
        <mxCell id="ntTTZY2OioaLef3FtTBc-94" style="edgeStyle=none;rounded=0;orthogonalLoop=1;jettySize=auto;html=1;entryX=0.5;entryY=0;entryDx=0;entryDy=0;endArrow=none;endFill=0;exitX=1;exitY=1;exitDx=0;exitDy=0;fontColor=#383838;" edge="1" parent="1" source="ntTTZY2OioaLef3FtTBc-96" target="ntTTZY2OioaLef3FtTBc-100">
          <mxGeometry relative="1" as="geometry" />
        </mxCell>
        <mxCell id="ntTTZY2OioaLef3FtTBc-95" value="3" style="edgeLabel;html=1;align=center;verticalAlign=middle;resizable=0;points=[];fontSize=14;fontColor=#383838;" vertex="1" connectable="0" parent="ntTTZY2OioaLef3FtTBc-94">
          <mxGeometry x="-0.1194" relative="1" as="geometry">
            <mxPoint as="offset" />
          </mxGeometry>
        </mxCell>
        <mxCell id="ntTTZY2OioaLef3FtTBc-96" value="" style="ellipse;whiteSpace=wrap;html=1;aspect=fixed;fillColor=#000000;fontColor=#383838;" vertex="1" parent="1">
          <mxGeometry x="409" y="3139" width="12" height="12" as="geometry" />
        </mxCell>
        <mxCell id="ntTTZY2OioaLef3FtTBc-97" style="edgeStyle=none;rounded=0;orthogonalLoop=1;jettySize=auto;html=1;entryX=0;entryY=0.5;entryDx=0;entryDy=0;endArrow=none;endFill=0;fillColor=#f8cecc;strokeColor=#b85450;strokeWidth=3;fontColor=#383838;" edge="1" parent="1" source="ntTTZY2OioaLef3FtTBc-99" target="ntTTZY2OioaLef3FtTBc-100">
          <mxGeometry relative="1" as="geometry">
            <Array as="points">
              <mxPoint x="414" y="3338" />
            </Array>
          </mxGeometry>
        </mxCell>
        <mxCell id="ntTTZY2OioaLef3FtTBc-98" value="5" style="edgeLabel;html=1;align=center;verticalAlign=middle;resizable=0;points=[];fontSize=14;fontColor=#383838;" vertex="1" connectable="0" parent="ntTTZY2OioaLef3FtTBc-97">
          <mxGeometry x="0.0369" y="1" relative="1" as="geometry">
            <mxPoint as="offset" />
          </mxGeometry>
        </mxCell>
        <mxCell id="ntTTZY2OioaLef3FtTBc-99" value="" style="ellipse;whiteSpace=wrap;html=1;aspect=fixed;fillColor=#000000;fontColor=#383838;" vertex="1" parent="1">
          <mxGeometry x="299" y="3332" width="12" height="12" as="geometry" />
        </mxCell>
        <mxCell id="ntTTZY2OioaLef3FtTBc-100" value="" style="ellipse;whiteSpace=wrap;html=1;aspect=fixed;fillColor=#000000;fontSize=14;fontColor=#383838;" vertex="1" parent="1">
          <mxGeometry x="519" y="3332" width="12" height="12" as="geometry" />
        </mxCell>
        <mxCell id="ntTTZY2OioaLef3FtTBc-101" style="edgeStyle=none;rounded=0;orthogonalLoop=1;jettySize=auto;html=1;endArrow=none;endFill=0;fontSize=14;fillColor=#f8cecc;strokeColor=#b85450;strokeWidth=3;fontColor=#383838;" edge="1" parent="1" source="ntTTZY2OioaLef3FtTBc-103" target="ntTTZY2OioaLef3FtTBc-100">
          <mxGeometry relative="1" as="geometry" />
        </mxCell>
        <mxCell id="ntTTZY2OioaLef3FtTBc-102" value="1" style="edgeLabel;html=1;align=center;verticalAlign=middle;resizable=0;points=[];fontSize=14;fontColor=#383838;" vertex="1" connectable="0" parent="ntTTZY2OioaLef3FtTBc-101">
          <mxGeometry x="-0.1361" relative="1" as="geometry">
            <mxPoint as="offset" />
          </mxGeometry>
        </mxCell>
        <mxCell id="ntTTZY2OioaLef3FtTBc-103" value="" style="ellipse;whiteSpace=wrap;html=1;aspect=fixed;fillColor=#000000;fontSize=14;fontColor=#383838;" vertex="1" parent="1">
          <mxGeometry x="409" y="3250" width="12" height="12" as="geometry" />
        </mxCell>
        <mxCell id="ntTTZY2OioaLef3FtTBc-104" style="edgeStyle=none;rounded=0;orthogonalLoop=1;jettySize=auto;html=1;entryX=1;entryY=0;entryDx=0;entryDy=0;endArrow=none;endFill=0;exitX=0.202;exitY=0.924;exitDx=0;exitDy=0;exitPerimeter=0;fillColor=#f8cecc;strokeColor=#b85450;strokeWidth=3;fontColor=#383838;" edge="1" parent="1" source="ntTTZY2OioaLef3FtTBc-110" target="ntTTZY2OioaLef3FtTBc-113">
          <mxGeometry relative="1" as="geometry" />
        </mxCell>
        <mxCell id="ntTTZY2OioaLef3FtTBc-105" value="4" style="edgeLabel;html=1;align=center;verticalAlign=middle;resizable=0;points=[];fontSize=14;fontColor=#383838;" vertex="1" connectable="0" parent="ntTTZY2OioaLef3FtTBc-104">
          <mxGeometry x="-0.0561" relative="1" as="geometry">
            <mxPoint as="offset" />
          </mxGeometry>
        </mxCell>
        <mxCell id="ntTTZY2OioaLef3FtTBc-106" style="edgeStyle=none;rounded=0;orthogonalLoop=1;jettySize=auto;html=1;entryX=0.5;entryY=0;entryDx=0;entryDy=0;endArrow=none;endFill=0;fontColor=#383838;" edge="1" parent="1" source="ntTTZY2OioaLef3FtTBc-110" target="ntTTZY2OioaLef3FtTBc-117">
          <mxGeometry relative="1" as="geometry" />
        </mxCell>
        <mxCell id="ntTTZY2OioaLef3FtTBc-107" value="2" style="edgeLabel;html=1;align=center;verticalAlign=middle;resizable=0;points=[];fontSize=14;fontColor=#383838;" vertex="1" connectable="0" parent="ntTTZY2OioaLef3FtTBc-106">
          <mxGeometry x="0.1408" relative="1" as="geometry">
            <mxPoint as="offset" />
          </mxGeometry>
        </mxCell>
        <mxCell id="ntTTZY2OioaLef3FtTBc-108" style="edgeStyle=none;rounded=0;orthogonalLoop=1;jettySize=auto;html=1;entryX=0.5;entryY=0;entryDx=0;entryDy=0;endArrow=none;endFill=0;exitX=1;exitY=1;exitDx=0;exitDy=0;fillColor=#f8cecc;strokeColor=#b85450;strokeWidth=3;fontColor=#383838;" edge="1" parent="1" source="ntTTZY2OioaLef3FtTBc-110" target="ntTTZY2OioaLef3FtTBc-114">
          <mxGeometry relative="1" as="geometry" />
        </mxCell>
        <mxCell id="ntTTZY2OioaLef3FtTBc-109" value="3" style="edgeLabel;html=1;align=center;verticalAlign=middle;resizable=0;points=[];fontSize=14;fontColor=#383838;" vertex="1" connectable="0" parent="ntTTZY2OioaLef3FtTBc-108">
          <mxGeometry x="-0.1194" relative="1" as="geometry">
            <mxPoint as="offset" />
          </mxGeometry>
        </mxCell>
        <mxCell id="ntTTZY2OioaLef3FtTBc-110" value="" style="ellipse;whiteSpace=wrap;html=1;aspect=fixed;fillColor=#000000;fontColor=#383838;" vertex="1" parent="1">
          <mxGeometry x="707" y="3139" width="12" height="12" as="geometry" />
        </mxCell>
        <mxCell id="ntTTZY2OioaLef3FtTBc-111" style="edgeStyle=none;rounded=0;orthogonalLoop=1;jettySize=auto;html=1;entryX=0;entryY=0.5;entryDx=0;entryDy=0;endArrow=none;endFill=0;fontColor=#383838;" edge="1" parent="1" source="ntTTZY2OioaLef3FtTBc-113" target="ntTTZY2OioaLef3FtTBc-114">
          <mxGeometry relative="1" as="geometry">
            <Array as="points">
              <mxPoint x="712" y="3338" />
            </Array>
          </mxGeometry>
        </mxCell>
        <mxCell id="ntTTZY2OioaLef3FtTBc-112" value="5" style="edgeLabel;html=1;align=center;verticalAlign=middle;resizable=0;points=[];fontSize=14;fontColor=#383838;" vertex="1" connectable="0" parent="ntTTZY2OioaLef3FtTBc-111">
          <mxGeometry x="0.0369" y="1" relative="1" as="geometry">
            <mxPoint as="offset" />
          </mxGeometry>
        </mxCell>
        <mxCell id="ntTTZY2OioaLef3FtTBc-113" value="" style="ellipse;whiteSpace=wrap;html=1;aspect=fixed;fillColor=#000000;fontColor=#383838;" vertex="1" parent="1">
          <mxGeometry x="597" y="3332" width="12" height="12" as="geometry" />
        </mxCell>
        <mxCell id="ntTTZY2OioaLef3FtTBc-114" value="" style="ellipse;whiteSpace=wrap;html=1;aspect=fixed;fillColor=#000000;fontSize=14;fontColor=#383838;" vertex="1" parent="1">
          <mxGeometry x="817" y="3332" width="12" height="12" as="geometry" />
        </mxCell>
        <mxCell id="ntTTZY2OioaLef3FtTBc-115" style="edgeStyle=none;rounded=0;orthogonalLoop=1;jettySize=auto;html=1;endArrow=none;endFill=0;fontSize=14;fillColor=#f8cecc;strokeColor=#b85450;strokeWidth=3;fontColor=#383838;" edge="1" parent="1" source="ntTTZY2OioaLef3FtTBc-117" target="ntTTZY2OioaLef3FtTBc-114">
          <mxGeometry relative="1" as="geometry" />
        </mxCell>
        <mxCell id="ntTTZY2OioaLef3FtTBc-116" value="1" style="edgeLabel;html=1;align=center;verticalAlign=middle;resizable=0;points=[];fontSize=14;fontColor=#383838;" vertex="1" connectable="0" parent="ntTTZY2OioaLef3FtTBc-115">
          <mxGeometry x="-0.1361" relative="1" as="geometry">
            <mxPoint as="offset" />
          </mxGeometry>
        </mxCell>
        <mxCell id="ntTTZY2OioaLef3FtTBc-117" value="" style="ellipse;whiteSpace=wrap;html=1;aspect=fixed;fillColor=#000000;fontSize=14;fontColor=#383838;" vertex="1" parent="1">
          <mxGeometry x="707" y="3250" width="12" height="12" as="geometry" />
        </mxCell>
        <mxCell id="ntTTZY2OioaLef3FtTBc-118" value="&lt;font style=&quot;font-size: 16px;&quot;&gt;...&lt;br&gt;&lt;br&gt;&lt;/font&gt;" style="ellipse;whiteSpace=wrap;html=1;fontStyle=1" vertex="1" parent="1">
          <mxGeometry x="925.6199999999999" y="3068" width="63.47" height="162" as="geometry" />
        </mxCell>
        <mxCell id="ntTTZY2OioaLef3FtTBc-119" style="edgeStyle=none;rounded=0;orthogonalLoop=1;jettySize=auto;html=1;entryX=0.5;entryY=0;entryDx=0;entryDy=0;fontStyle=1" edge="1" parent="1" source="ntTTZY2OioaLef3FtTBc-118" target="ntTTZY2OioaLef3FtTBc-118">
          <mxGeometry relative="1" as="geometry" />
        </mxCell>
        <mxCell id="ntTTZY2OioaLef3FtTBc-120" style="edgeStyle=none;rounded=0;orthogonalLoop=1;jettySize=auto;html=1;entryX=0.5;entryY=0;entryDx=0;entryDy=0;fontStyle=1" edge="1" parent="1">
          <mxGeometry relative="1" as="geometry">
            <mxPoint x="995.7049999999999" y="3046" as="sourcePoint" />
            <mxPoint x="995.7049999999999" y="3046" as="targetPoint" />
          </mxGeometry>
        </mxCell>
        <mxCell id="ntTTZY2OioaLef3FtTBc-121" style="edgeStyle=none;rounded=0;orthogonalLoop=1;jettySize=auto;html=1;fontSize=16;fontColor=#383838;endArrow=none;endFill=0;strokeWidth=1;" edge="1" parent="1" source="ntTTZY2OioaLef3FtTBc-122" target="ntTTZY2OioaLef3FtTBc-123">
          <mxGeometry relative="1" as="geometry" />
        </mxCell>
        <mxCell id="ntTTZY2OioaLef3FtTBc-122" value="" style="ellipse;whiteSpace=wrap;html=1;aspect=fixed;fontStyle=1" vertex="1" parent="1">
          <mxGeometry x="948.89" y="3079" width="16" height="16" as="geometry" />
        </mxCell>
        <mxCell id="ntTTZY2OioaLef3FtTBc-123" value="" style="ellipse;whiteSpace=wrap;html=1;aspect=fixed;fontStyle=1" vertex="1" parent="1">
          <mxGeometry x="948.89" y="3109" width="16" height="16" as="geometry" />
        </mxCell>
        <mxCell id="ntTTZY2OioaLef3FtTBc-124" value="" style="ellipse;whiteSpace=wrap;html=1;aspect=fixed;fontStyle=1" vertex="1" parent="1">
          <mxGeometry x="949.27" y="3198" width="16" height="16" as="geometry" />
        </mxCell>
        <mxCell id="ntTTZY2OioaLef3FtTBc-125" style="edgeStyle=none;rounded=0;orthogonalLoop=1;jettySize=auto;html=1;entryX=0.5;entryY=1;entryDx=0;entryDy=0;fontSize=14;fontColor=#383838;endArrow=none;endFill=0;strokeWidth=3;" edge="1" parent="1" source="ntTTZY2OioaLef3FtTBc-118" target="ntTTZY2OioaLef3FtTBc-118">
          <mxGeometry relative="1" as="geometry" />
        </mxCell>
        <mxCell id="ntTTZY2OioaLef3FtTBc-126" style="edgeStyle=none;rounded=0;orthogonalLoop=1;jettySize=auto;html=1;entryX=0.5;entryY=0;entryDx=0;entryDy=0;fontStyle=1" edge="1" parent="1">
          <mxGeometry relative="1" as="geometry">
            <mxPoint x="1149.7350000000006" y="3061" as="sourcePoint" />
            <mxPoint x="1149.7350000000006" y="3061" as="targetPoint" />
          </mxGeometry>
        </mxCell>
        <mxCell id="ntTTZY2OioaLef3FtTBc-127" style="edgeStyle=none;rounded=0;orthogonalLoop=1;jettySize=auto;html=1;entryX=0.5;entryY=0;entryDx=0;entryDy=0;fontStyle=1" edge="1" parent="1">
          <mxGeometry relative="1" as="geometry">
            <mxPoint x="1188.1749999999993" y="3047" as="sourcePoint" />
            <mxPoint x="1188.1749999999993" y="3047" as="targetPoint" />
          </mxGeometry>
        </mxCell>
        <mxCell id="ntTTZY2OioaLef3FtTBc-128" style="edgeStyle=none;rounded=0;orthogonalLoop=1;jettySize=auto;html=1;fontSize=16;fontColor=#383838;endArrow=none;endFill=0;strokeWidth=1;" edge="1" parent="1" source="ntTTZY2OioaLef3FtTBc-129" target="ntTTZY2OioaLef3FtTBc-130">
          <mxGeometry relative="1" as="geometry" />
        </mxCell>
        <mxCell id="ntTTZY2OioaLef3FtTBc-129" value="" style="ellipse;whiteSpace=wrap;html=1;aspect=fixed;fontStyle=1" vertex="1" parent="1">
          <mxGeometry x="1141.36" y="3080" width="16" height="16" as="geometry" />
        </mxCell>
        <mxCell id="ntTTZY2OioaLef3FtTBc-130" value="" style="ellipse;whiteSpace=wrap;html=1;aspect=fixed;fontStyle=1" vertex="1" parent="1">
          <mxGeometry x="1141.36" y="3110" width="16" height="16" as="geometry" />
        </mxCell>
        <mxCell id="ntTTZY2OioaLef3FtTBc-131" value="" style="ellipse;whiteSpace=wrap;html=1;aspect=fixed;fontStyle=1" vertex="1" parent="1">
          <mxGeometry x="1141.36" y="3198" width="16" height="16" as="geometry" />
        </mxCell>
        <mxCell id="ntTTZY2OioaLef3FtTBc-132" style="edgeStyle=none;rounded=0;orthogonalLoop=1;jettySize=auto;html=1;entryX=0.5;entryY=1;entryDx=0;entryDy=0;fontSize=14;fontColor=#383838;endArrow=none;endFill=0;strokeWidth=3;" edge="1" parent="1">
          <mxGeometry relative="1" as="geometry">
            <mxPoint x="1149.7350000000006" y="3220" as="sourcePoint" />
            <mxPoint x="1149.7350000000006" y="3220" as="targetPoint" />
          </mxGeometry>
        </mxCell>
        <mxCell id="ntTTZY2OioaLef3FtTBc-133" style="edgeStyle=none;rounded=0;orthogonalLoop=1;jettySize=auto;html=1;fontSize=16;fontColor=#383838;endArrow=none;endFill=0;strokeWidth=1;entryX=0;entryY=0.5;entryDx=0;entryDy=0;" edge="1" parent="1" source="ntTTZY2OioaLef3FtTBc-124" target="ntTTZY2OioaLef3FtTBc-131">
          <mxGeometry relative="1" as="geometry">
            <mxPoint x="965.9999097289663" y="3181.0380043217524" as="sourcePoint" />
            <mxPoint x="1142.4700000000175" y="3182" as="targetPoint" />
          </mxGeometry>
        </mxCell>
        <mxCell id="ntTTZY2OioaLef3FtTBc-134" style="edgeStyle=none;rounded=0;orthogonalLoop=1;jettySize=auto;html=1;entryX=0;entryY=0.5;entryDx=0;entryDy=0;fontSize=16;fontColor=#383838;endArrow=none;endFill=0;strokeWidth=1;" edge="1" parent="1" source="ntTTZY2OioaLef3FtTBc-122" target="ntTTZY2OioaLef3FtTBc-129">
          <mxGeometry relative="1" as="geometry" />
        </mxCell>
        <mxCell id="ntTTZY2OioaLef3FtTBc-135" value="e" style="edgeLabel;html=1;align=center;verticalAlign=middle;resizable=0;points=[];fontSize=16;fontColor=#383838;" vertex="1" connectable="0" parent="ntTTZY2OioaLef3FtTBc-134">
          <mxGeometry x="-0.0605" y="1" relative="1" as="geometry">
            <mxPoint as="offset" />
          </mxGeometry>
        </mxCell>
        <mxCell id="ntTTZY2OioaLef3FtTBc-136" style="edgeStyle=none;rounded=0;orthogonalLoop=1;jettySize=auto;html=1;fontSize=16;fontColor=#383838;endArrow=none;endFill=0;strokeWidth=1;" edge="1" parent="1" source="ntTTZY2OioaLef3FtTBc-137" target="ntTTZY2OioaLef3FtTBc-131">
          <mxGeometry relative="1" as="geometry" />
        </mxCell>
        <mxCell id="ntTTZY2OioaLef3FtTBc-137" value="" style="ellipse;whiteSpace=wrap;html=1;aspect=fixed;fontStyle=1" vertex="1" parent="1">
          <mxGeometry x="1141.73" y="3164" width="16" height="16" as="geometry" />
        </mxCell>
        <mxCell id="ntTTZY2OioaLef3FtTBc-138" style="edgeStyle=none;rounded=0;orthogonalLoop=1;jettySize=auto;html=1;fontSize=16;fontColor=#383838;endArrow=none;endFill=0;strokeWidth=1;" edge="1" parent="1" source="ntTTZY2OioaLef3FtTBc-139" target="ntTTZY2OioaLef3FtTBc-124">
          <mxGeometry relative="1" as="geometry" />
        </mxCell>
        <mxCell id="ntTTZY2OioaLef3FtTBc-139" value="" style="ellipse;whiteSpace=wrap;html=1;aspect=fixed;fontStyle=1" vertex="1" parent="1">
          <mxGeometry x="949.27" y="3168" width="16" height="16" as="geometry" />
        </mxCell>
        <mxCell id="ntTTZY2OioaLef3FtTBc-140" style="edgeStyle=none;rounded=0;orthogonalLoop=1;jettySize=auto;html=1;entryX=0;entryY=0.5;entryDx=0;entryDy=0;fontSize=16;fontColor=#383838;endArrow=none;endFill=0;strokeWidth=1;" edge="1" parent="1" source="ntTTZY2OioaLef3FtTBc-143" target="ntTTZY2OioaLef3FtTBc-146">
          <mxGeometry relative="1" as="geometry" />
        </mxCell>
        <mxCell id="ntTTZY2OioaLef3FtTBc-141" style="edgeStyle=none;rounded=0;orthogonalLoop=1;jettySize=auto;html=1;entryX=0;entryY=0.5;entryDx=0;entryDy=0;fontSize=16;fontColor=#383838;endArrow=none;endFill=0;strokeWidth=1;" edge="1" parent="1" source="ntTTZY2OioaLef3FtTBc-143" target="ntTTZY2OioaLef3FtTBc-150">
          <mxGeometry relative="1" as="geometry" />
        </mxCell>
        <mxCell id="ntTTZY2OioaLef3FtTBc-142" style="edgeStyle=none;rounded=0;orthogonalLoop=1;jettySize=auto;html=1;fontSize=16;fontColor=#383838;endArrow=none;endFill=0;strokeWidth=1;" edge="1" parent="1" source="ntTTZY2OioaLef3FtTBc-143" target="ntTTZY2OioaLef3FtTBc-147">
          <mxGeometry relative="1" as="geometry" />
        </mxCell>
        <mxCell id="ntTTZY2OioaLef3FtTBc-143" value="" style="ellipse;whiteSpace=wrap;html=1;aspect=fixed;fontSize=16;fillColor=#d5e8d4;strokeColor=#82b366;" vertex="1" parent="1">
          <mxGeometry x="205" y="258" width="12" height="12" as="geometry" />
        </mxCell>
        <mxCell id="ntTTZY2OioaLef3FtTBc-144" value="" style="ellipse;whiteSpace=wrap;html=1;aspect=fixed;fontSize=16;fillColor=#dae8fc;strokeColor=#6c8ebf;" vertex="1" parent="1">
          <mxGeometry x="292" y="155" width="12" height="12" as="geometry" />
        </mxCell>
        <mxCell id="ntTTZY2OioaLef3FtTBc-145" style="edgeStyle=none;rounded=0;orthogonalLoop=1;jettySize=auto;html=1;fontSize=11;fontColor=#383838;endArrow=none;endFill=0;strokeWidth=1;" edge="1" parent="1" source="ntTTZY2OioaLef3FtTBc-146" target="ntTTZY2OioaLef3FtTBc-157">
          <mxGeometry relative="1" as="geometry" />
        </mxCell>
        <mxCell id="ntTTZY2OioaLef3FtTBc-146" value="" style="ellipse;whiteSpace=wrap;html=1;aspect=fixed;fontSize=16;fillColor=#dae8fc;strokeColor=#6c8ebf;" vertex="1" parent="1">
          <mxGeometry x="292" y="215" width="12" height="12" as="geometry" />
        </mxCell>
        <mxCell id="ntTTZY2OioaLef3FtTBc-147" value="" style="ellipse;whiteSpace=wrap;html=1;aspect=fixed;fontSize=16;fillColor=#dae8fc;strokeColor=#6c8ebf;" vertex="1" parent="1">
          <mxGeometry x="292" y="362" width="12" height="12" as="geometry" />
        </mxCell>
        <mxCell id="ntTTZY2OioaLef3FtTBc-148" style="edgeStyle=none;rounded=0;orthogonalLoop=1;jettySize=auto;html=1;entryX=0;entryY=0.5;entryDx=0;entryDy=0;fontSize=11;fontColor=#383838;endArrow=none;endFill=0;strokeWidth=1;fillColor=#f8cecc;strokeColor=#b85450;" edge="1" parent="1" source="ntTTZY2OioaLef3FtTBc-150" target="ntTTZY2OioaLef3FtTBc-157">
          <mxGeometry relative="1" as="geometry" />
        </mxCell>
        <mxCell id="ntTTZY2OioaLef3FtTBc-149" style="edgeStyle=none;rounded=0;orthogonalLoop=1;jettySize=auto;html=1;fontSize=11;fontColor=#383838;endArrow=none;endFill=0;strokeWidth=1;fillColor=#f8cecc;strokeColor=#000000;" edge="1" parent="1" source="ntTTZY2OioaLef3FtTBc-150" target="ntTTZY2OioaLef3FtTBc-159">
          <mxGeometry relative="1" as="geometry" />
        </mxCell>
        <mxCell id="ntTTZY2OioaLef3FtTBc-150" value="" style="ellipse;whiteSpace=wrap;html=1;aspect=fixed;fontSize=16;fillColor=#dae8fc;strokeColor=#6c8ebf;" vertex="1" parent="1">
          <mxGeometry x="292" y="296" width="12" height="12" as="geometry" />
        </mxCell>
        <mxCell id="ntTTZY2OioaLef3FtTBc-151" value="" style="endArrow=none;html=1;rounded=0;fontSize=16;fontColor=#383838;strokeWidth=1;entryX=0;entryY=1;entryDx=0;entryDy=0;exitX=1;exitY=0;exitDx=0;exitDy=0;" edge="1" parent="1" source="ntTTZY2OioaLef3FtTBc-143" target="ntTTZY2OioaLef3FtTBc-144">
          <mxGeometry width="50" height="50" relative="1" as="geometry">
            <mxPoint x="169" y="324" as="sourcePoint" />
            <mxPoint x="219" y="274" as="targetPoint" />
          </mxGeometry>
        </mxCell>
        <mxCell id="ntTTZY2OioaLef3FtTBc-152" style="edgeStyle=none;rounded=0;orthogonalLoop=1;jettySize=auto;html=1;fontSize=16;fontColor=#383838;endArrow=none;endFill=0;strokeWidth=1;" edge="1" parent="1" target="ntTTZY2OioaLef3FtTBc-157">
          <mxGeometry relative="1" as="geometry">
            <mxPoint x="513" y="264" as="sourcePoint" />
          </mxGeometry>
        </mxCell>
        <mxCell id="ntTTZY2OioaLef3FtTBc-153" style="edgeStyle=none;rounded=0;orthogonalLoop=1;jettySize=auto;html=1;entryX=0.901;entryY=0.522;entryDx=0;entryDy=0;fontSize=16;fontColor=#383838;endArrow=none;endFill=0;strokeWidth=1;entryPerimeter=0;" edge="1" parent="1" source="ntTTZY2OioaLef3FtTBc-155" target="ntTTZY2OioaLef3FtTBc-159">
          <mxGeometry relative="1" as="geometry" />
        </mxCell>
        <mxCell id="ntTTZY2OioaLef3FtTBc-154" style="edgeStyle=none;rounded=0;orthogonalLoop=1;jettySize=auto;html=1;fontSize=16;fontColor=#383838;endArrow=none;endFill=0;strokeWidth=1;entryX=0.785;entryY=0.045;entryDx=0;entryDy=0;entryPerimeter=0;" edge="1" parent="1" source="ntTTZY2OioaLef3FtTBc-155" target="ntTTZY2OioaLef3FtTBc-158">
          <mxGeometry relative="1" as="geometry" />
        </mxCell>
        <mxCell id="ntTTZY2OioaLef3FtTBc-155" value="" style="ellipse;whiteSpace=wrap;html=1;aspect=fixed;fontSize=16;fillColor=#f8cecc;strokeColor=#b85450;" vertex="1" parent="1">
          <mxGeometry x="511" y="258" width="12" height="12" as="geometry" />
        </mxCell>
        <mxCell id="ntTTZY2OioaLef3FtTBc-156" value="" style="ellipse;whiteSpace=wrap;html=1;aspect=fixed;fontSize=16;fillColor=#dae8fc;strokeColor=#6c8ebf;" vertex="1" parent="1">
          <mxGeometry x="428" y="154.5" width="12" height="12" as="geometry" />
        </mxCell>
        <mxCell id="ntTTZY2OioaLef3FtTBc-157" value="" style="ellipse;whiteSpace=wrap;html=1;aspect=fixed;fontSize=16;fillColor=#dae8fc;strokeColor=#6c8ebf;" vertex="1" parent="1">
          <mxGeometry x="428" y="214.5" width="12" height="12" as="geometry" />
        </mxCell>
        <mxCell id="ntTTZY2OioaLef3FtTBc-158" value="" style="ellipse;whiteSpace=wrap;html=1;aspect=fixed;fontSize=16;fillColor=#dae8fc;strokeColor=#6c8ebf;" vertex="1" parent="1">
          <mxGeometry x="428" y="361.5" width="12" height="12" as="geometry" />
        </mxCell>
        <mxCell id="ntTTZY2OioaLef3FtTBc-159" value="" style="ellipse;whiteSpace=wrap;html=1;aspect=fixed;fontSize=16;fillColor=#dae8fc;strokeColor=#6c8ebf;" vertex="1" parent="1">
          <mxGeometry x="428" y="295.5" width="12" height="12" as="geometry" />
        </mxCell>
        <mxCell id="ntTTZY2OioaLef3FtTBc-160" value="" style="endArrow=none;html=1;rounded=0;fontSize=16;fontColor=#383838;strokeWidth=1;entryX=1;entryY=1;entryDx=0;entryDy=0;exitX=0;exitY=0;exitDx=0;exitDy=0;" edge="1" parent="1" source="ntTTZY2OioaLef3FtTBc-155" target="ntTTZY2OioaLef3FtTBc-156">
          <mxGeometry width="50" height="50" relative="1" as="geometry">
            <mxPoint x="475" y="324" as="sourcePoint" />
            <mxPoint x="525" y="274" as="targetPoint" />
          </mxGeometry>
        </mxCell>
        <mxCell id="ntTTZY2OioaLef3FtTBc-161" value="&lt;font size=&quot;1&quot;&gt;u&lt;/font&gt;&lt;span style=&quot;font-size: 8.33333px;&quot;&gt;&lt;sub&gt;1&lt;/sub&gt;&lt;/span&gt;" style="text;html=1;strokeColor=none;fillColor=none;align=center;verticalAlign=middle;whiteSpace=wrap;rounded=0;fontSize=16;fontColor=#383838;" vertex="1" parent="1">
          <mxGeometry x="261" y="151.5" width="31" height="15" as="geometry" />
        </mxCell>
        <mxCell id="ntTTZY2OioaLef3FtTBc-162" value="&lt;font size=&quot;1&quot;&gt;u&lt;/font&gt;&lt;span style=&quot;font-size: 6.94444px;&quot;&gt;&lt;sub&gt;i&lt;/sub&gt;&lt;/span&gt;" style="text;html=1;strokeColor=none;fillColor=none;align=center;verticalAlign=middle;whiteSpace=wrap;rounded=0;fontSize=16;fontColor=#383838;" vertex="1" parent="1">
          <mxGeometry x="259" y="207" width="31" height="15" as="geometry" />
        </mxCell>
        <mxCell id="ntTTZY2OioaLef3FtTBc-163" value="&lt;font size=&quot;1&quot;&gt;u&lt;/font&gt;&lt;span style=&quot;font-size: 8.33333px;&quot;&gt;&lt;sub&gt;j&lt;/sub&gt;&lt;/span&gt;" style="text;html=1;strokeColor=none;fillColor=none;align=center;verticalAlign=middle;whiteSpace=wrap;rounded=0;fontSize=16;fontColor=#383838;" vertex="1" parent="1">
          <mxGeometry x="261" y="276" width="31" height="15" as="geometry" />
        </mxCell>
        <mxCell id="ntTTZY2OioaLef3FtTBc-164" value="&lt;font size=&quot;1&quot;&gt;u&lt;/font&gt;&lt;span style=&quot;font-size: 8.33333px;&quot;&gt;&lt;sub&gt;k&lt;/sub&gt;&lt;/span&gt;" style="text;html=1;strokeColor=none;fillColor=none;align=center;verticalAlign=middle;whiteSpace=wrap;rounded=0;fontSize=16;fontColor=#383838;" vertex="1" parent="1">
          <mxGeometry x="259" y="358.5" width="31" height="15" as="geometry" />
        </mxCell>
        <mxCell id="ntTTZY2OioaLef3FtTBc-165" value="&lt;font size=&quot;1&quot;&gt;v&lt;/font&gt;&lt;span style=&quot;font-size: 8.33333px;&quot;&gt;&lt;sub&gt;1&lt;/sub&gt;&lt;/span&gt;" style="text;html=1;strokeColor=none;fillColor=none;align=center;verticalAlign=middle;whiteSpace=wrap;rounded=0;fontSize=16;fontColor=#383838;" vertex="1" parent="1">
          <mxGeometry x="446" y="158" width="31" height="15" as="geometry" />
        </mxCell>
        <mxCell id="ntTTZY2OioaLef3FtTBc-166" value="&lt;font size=&quot;1&quot;&gt;v&lt;/font&gt;&lt;span style=&quot;font-size: 6.94444px;&quot;&gt;&lt;sub&gt;i&lt;/sub&gt;&lt;/span&gt;" style="text;html=1;strokeColor=none;fillColor=none;align=center;verticalAlign=middle;whiteSpace=wrap;rounded=0;fontSize=16;fontColor=#383838;" vertex="1" parent="1">
          <mxGeometry x="444" y="213.5" width="31" height="15" as="geometry" />
        </mxCell>
        <mxCell id="ntTTZY2OioaLef3FtTBc-167" value="&lt;font size=&quot;1&quot;&gt;v&lt;/font&gt;&lt;span style=&quot;font-size: 8.33333px;&quot;&gt;&lt;sub&gt;j&lt;/sub&gt;&lt;/span&gt;" style="text;html=1;strokeColor=none;fillColor=none;align=center;verticalAlign=middle;whiteSpace=wrap;rounded=0;fontSize=16;fontColor=#383838;" vertex="1" parent="1">
          <mxGeometry x="446" y="270" width="31" height="15" as="geometry" />
        </mxCell>
        <mxCell id="ntTTZY2OioaLef3FtTBc-168" value="&lt;font size=&quot;1&quot;&gt;u&lt;/font&gt;&lt;span style=&quot;font-size: 6.94444px;&quot;&gt;&lt;sub&gt;x&lt;/sub&gt;&lt;/span&gt;" style="text;html=1;strokeColor=none;fillColor=none;align=center;verticalAlign=middle;whiteSpace=wrap;rounded=0;fontSize=16;fontColor=#383838;" vertex="1" parent="1">
          <mxGeometry x="444" y="358" width="31" height="15.5" as="geometry" />
        </mxCell>
        <mxCell id="ntTTZY2OioaLef3FtTBc-169" value="&lt;font size=&quot;1&quot;&gt;u&lt;/font&gt;" style="text;html=1;strokeColor=none;fillColor=none;align=center;verticalAlign=middle;whiteSpace=wrap;rounded=0;fontSize=16;fontColor=#383838;" vertex="1" parent="1">
          <mxGeometry x="174" y="255" width="31" height="15" as="geometry" />
        </mxCell>
        <mxCell id="ntTTZY2OioaLef3FtTBc-170" value="&lt;font size=&quot;1&quot;&gt;v&lt;/font&gt;" style="text;html=1;strokeColor=none;fillColor=none;align=center;verticalAlign=middle;whiteSpace=wrap;rounded=0;fontSize=16;fontColor=#383838;" vertex="1" parent="1">
          <mxGeometry x="531" y="255" width="31" height="15" as="geometry" />
        </mxCell>
      </root>
    </mxGraphModel>
  </diagram>
</mxfile>
